<?xml version="1.0" encoding="UTF-8"?>
<svg width="43px" height="60px" viewBox="0 0 43 60" version="1.1" xmlns="http://www.w3.org/2000/svg" xmlns:xlink="http://www.w3.org/1999/xlink">
    <!-- Generator: Sketch 54.1 (76490) - https://sketchapp.com -->
    <title>Fill 1</title>
    <desc>Created with Sketch.</desc>
    <g id="页面1" stroke="none" stroke-width="1" fill="none" fill-rule="evenodd">
        <g id="iPhone-XS" transform="translate(-166.000000, -85.000000)" fill="#107EFF">
            <g id="Group" transform="translate(166.000000, 85.000000)">
                <g id="Group-Copy">
                    <path d="M21.5,51.4277075 C14.3758115,51.4277075 8.59878634,45.6735373 8.59878634,38.5707806 L0,38.5707806 C0,50.4056846 9.62432966,60 21.5,60 C33.3756703,60 43,50.4056846 43,38.5707806 L34.4012137,38.5707806 C34.4012137,45.6735373 28.6241885,51.4277075 21.5,51.4277075 L21.5,51.4277075 Z M34.4012137,30.0280776 L43,30.0280776 L43,8.59950612 L34.4012137,8.59950612 L34.4012137,30.0280776 Z M0,30.0280776 L8.59878634,30.0280776 L8.59878634,8.59950612 L0,8.59950612 L0,30.0280776 Z M17.2006068,38.5707806 L25.7993932,38.5707806 L25.7993932,0 L17.2006068,0 L17.2006068,38.5707806 Z" id="Fill-1"></path>
                </g>
            </g>
        </g>
    </g>
</svg>