<?xml version="1.0" encoding="UTF-8"?>
<svg width="112px" height="131px" viewBox="0 0 112 131" version="1.1" xmlns="http://www.w3.org/2000/svg" xmlns:xlink="http://www.w3.org/1999/xlink">
    <!-- Generator: Sketch 54.1 (76490) - https://sketchapp.com -->
    <title>编组</title>
    <desc>Created with Sketch.</desc>
    <defs>
        <polygon id="path-1" points="0 0.337 111.6 0.337 111.6 106.691 0 106.691"></polygon>
        <polygon id="path-3" points="0.587956986 0.599806556 72.6415528 0.599806556 72.6415528 81 0.587956986 81"></polygon>
        <polygon id="path-5" points="0 130.131 111.6 130.131 111.6 0 0 0"></polygon>
    </defs>
    <g id="页面1" stroke="none" stroke-width="1" fill="none" fill-rule="evenodd">
        <g id="iPhone-XS" transform="translate(-133.000000, -598.000000)">
            <g id="编组" transform="translate(133.000000, 598.000000)">
                <g transform="translate(0.000000, 19.131000)">
                    <mask id="mask-2" fill="white">
                        <use xlink:href="#path-1"></use>
                    </mask>
                    <g id="Clip-2"></g>
                    <path d="M55.8002,0.337 L8.1662,6.572 L1.7512,29.134 C-5.5958,54.971 10.2252,85.489 48.1992,103.155 L55.8002,106.691 L63.4022,103.155 C101.3752,85.489 117.1962,54.971 109.8492,29.134 L103.4342,6.572 L55.8002,0.337 Z" id="Fill-1" fill="#231815" mask="url(#mask-2)"></path>
                </g>
                <path d="M51.7845,118.5784 C34.7445,110.6514 21.6545,99.6054 13.9295,86.6354 C10.3015,80.5444 7.9595,74.1984 6.9695,67.7714 C5.9885,61.4094 6.3575,55.1374 8.0655,49.1294 L13.6385,29.5304 L55.8005,24.0114 L97.9615,29.5304 L103.5345,49.1294 C105.2425,55.1374 105.6115,61.4094 104.6315,67.7714 C103.6405,74.1984 101.2995,80.5444 97.6715,86.6354 C89.9455,99.6054 76.8555,110.6514 59.8155,118.5784 L55.8005,120.4464 L51.7845,118.5784 Z" id="Fill-3" fill="#107EFF"></path>
                <path d="M54.9281,115.3284 C38.8171,107.8334 26.4431,97.3944 19.1441,85.1404 C15.7221,79.3954 13.5141,73.4114 12.5801,67.3554 C11.6601,61.3854 12.0041,55.5074 13.6021,49.8864 L18.4371,32.8854 L55.8001,27.9944 L93.1631,32.8854 L97.9981,49.8864 C99.5971,55.5074 99.9411,61.3854 99.0201,67.3564 C98.0871,73.4114 95.8781,79.3954 92.4561,85.1404 C85.1571,97.3944 72.7831,107.8334 56.6731,115.3284 L55.8001,115.7344 L54.9281,115.3284 Z" id="Fill-5" fill="#60DBFF"></path>
                <path d="M34.6547,14.8108 C34.6547,14.8108 32.7217,16.5308 33.3567,18.4808 C33.8197,19.9038 34.5997,21.0028 34.3897,22.3088 C34.4267,22.2758 34.4657,22.2448 34.5027,22.2138 C35.0807,21.7328 35.2497,21.0628 35.3517,20.3798 C35.5177,19.2808 35.8837,18.2668 36.5127,17.3538 C36.8507,16.8648 36.8287,16.4948 36.4617,15.9628 C35.9947,15.2838 35.3407,15.0678 34.6547,14.8108" id="Fill-7" fill="#FFFFFF"></path>
                <path d="M33.3568,18.4807 C32.7218,16.5307 34.6548,14.8107 34.6548,14.8107 C34.3778,14.9087 34.0858,14.9887 33.8138,15.1127 C32.8408,15.5567 32.1378,16.1917 31.6738,17.2387 C30.7668,19.2837 30.3098,21.4127 29.9608,23.7867 C30.7708,23.7867 31.4258,23.7177 32.0608,23.8027 C32.9768,23.9267 33.6538,23.7577 33.9968,22.8017 C34.0628,22.6157 34.2248,22.4527 34.3898,22.3087 C34.5998,21.0027 33.8198,19.9037 33.3568,18.4807" id="Fill-9" fill="#C8C9CA"></path>
                <path d="M43.1771,20.2732 C43.7701,19.9072 43.6931,19.3132 43.4241,18.7662 C42.8691,18.5442 42.2791,18.3432 41.6711,18.1872 C40.2811,19.4632 38.8651,20.7612 37.3311,22.1692 C38.5041,22.6922 39.5141,22.8412 40.5261,22.9892 C39.7461,21.6902 41.9681,21.0202 43.1771,20.2732" id="Fill-11" fill="#C8C9CA"></path>
                <path d="M56.3529,11.2883 C55.2189,10.1833 54.1349,9.1213 53.0449,8.0673 C51.6139,6.6833 50.1769,5.3053 48.8099,3.9893 L49.6949,7.7043 C49.6949,7.7043 53.1989,9.7053 53.2939,10.6293 C53.3889,11.5533 52.8759,12.6823 53.7489,14.0163 C54.6209,15.3503 53.2939,17.2253 53.2939,17.2253 L54.2099,18.7543 C54.2509,18.6473 54.2899,18.5383 54.3219,18.4253 C54.7559,16.8693 55.5819,15.4373 55.2809,13.6643 C55.2739,13.6253 55.2679,13.5853 55.2609,13.5443 C55.2539,13.5133 55.2469,13.4833 55.2389,13.4513 C54.6589,11.1253 56.3529,11.2883 56.3529,11.2883" id="Fill-13" fill="#FFFFFF"></path>
                <path d="M52.6176,17.2112 C52.0216,16.7072 51.4796,16.1422 50.8956,15.6242 C50.2566,15.0572 49.6596,14.4862 49.9676,13.4672 C49.5306,13.3202 49.1796,13.2032 48.8136,13.0812 C48.7726,12.9672 48.6936,12.8472 48.6916,12.7252 C48.6806,11.8552 48.7326,10.9802 48.6736,10.1132 C48.6156,9.2702 48.8516,8.6642 49.8236,8.3262 C50.0936,9.2802 50.3076,10.2002 50.6196,11.0862 C50.8026,11.6052 51.0556,12.1462 51.4226,12.5432 C52.0626,13.2382 52.5346,13.9782 52.3786,14.9332 C52.2496,15.7162 52.5526,16.2522 53.0796,16.7482 C53.1626,16.8262 53.1826,16.9712 53.2946,17.2262 C53.2946,17.2262 54.6206,15.3502 53.7486,14.0162 C52.8766,12.6822 53.3886,11.5532 53.2946,10.6292 C53.1986,9.7052 49.6946,7.7042 49.6946,7.7042 L48.8096,3.9892 C47.7076,4.1692 47.1316,4.6672 46.7666,5.3382 C46.8616,5.8082 46.9236,6.2132 46.9236,6.4722 C46.9236,7.6012 45.3846,13.1952 45.8466,14.3242 C46.1016,14.9502 46.9416,16.3512 47.6386,17.4732 C49.1266,17.7332 50.3806,18.5522 51.6636,19.2712 C51.9606,19.4362 52.0876,19.9042 52.3806,20.3712 C52.5296,20.3332 52.8336,20.3232 53.0556,20.1852 C53.6096,19.8412 53.9836,19.3422 54.2106,18.7542 L53.2946,17.2262 C53.0086,17.2262 52.7346,17.3112 52.6176,17.2112" id="Fill-15" fill="#C8C9CA"></path>
                <path d="M78.6107,18.7371 C78.6107,18.7371 75.5577,19.8711 75.4557,20.9461 C75.3667,21.8731 79.7437,22.7261 80.0607,24.1611 C80.1567,24.1721 80.2537,24.1841 80.3507,24.2001 C80.9327,24.2961 81.8317,24.2931 82.2007,23.3791 C82.2917,23.1551 82.7607,23.0411 83.0777,22.9621 C83.9177,22.7541 84.7777,22.6121 85.5287,21.9281 C83.4667,20.4231 81.1127,19.8411 78.9907,18.7781 C78.8827,18.7241 78.7347,18.7221 78.6107,18.7371" id="Fill-17" fill="#FFFFFF"></path>
                <path d="M75.4554,20.946 C75.5584,19.871 78.6104,18.737 78.6104,18.737 C78.6104,18.737 75.4984,19.007 74.5654,19.327 C73.6344,19.648 72.8634,20.79 71.2994,20.559 C70.5144,20.443 70.2264,19.99 70.1344,19.567 C70.0424,19.146 70.1434,18.755 70.1434,18.755 C70.1434,18.755 68.3884,20.222 68.0264,22.875 C67.9904,23.143 67.9684,23.423 67.9634,23.715 C67.9114,26.896 66.9624,26.845 66.9624,26.845 C66.9624,26.845 72.8634,27.076 74.2744,25.511 C74.6094,25.14 74.9794,24.864 75.3504,24.657 C76.9264,24.596 78.4374,23.988 80.0604,24.161 C79.7434,22.726 75.3664,21.873 75.4554,20.946" id="Fill-19" fill="#C8C9CA"></path>
                <path d="M70.1439,18.7546 C70.1439,18.7546 70.0419,19.1456 70.1339,19.5666 C70.7289,18.5056 71.4419,17.5306 71.4439,16.2556 C70.9079,15.6636 70.3489,15.1106 69.7729,14.5866 C68.9189,13.7276 68.0569,12.8486 68.0489,12.7926 C68.0319,12.6816 67.9459,11.7066 67.6559,11.2616 C67.3649,10.8176 65.3799,10.0646 64.9179,9.5346 C64.4569,9.0046 63.6529,7.5846 63.6529,7.5846 C63.6529,7.5846 62.0439,9.6536 62.1469,11.8096 C62.2499,13.9646 63.6529,16.3936 63.6529,16.3936 L63.2869,16.5166 C63.1789,16.8556 63.0749,17.1936 62.9739,17.5346 C62.7259,18.3776 62.2049,19.2656 63.1659,20.0356 C63.2439,20.0976 63.2299,20.2806 63.2489,20.4086 C63.2659,20.5236 63.2849,20.6376 63.3029,20.7516 C62.8129,21.4786 62.2789,22.1116 62.3189,22.8256 C62.3869,24.0566 63.5669,26.2356 63.5669,26.2356 C65.6729,26.5036 67.1349,25.5996 67.7049,23.8496 C67.7449,23.7256 67.7859,23.6026 67.8259,23.4786 C67.8919,23.2766 67.9589,23.0766 68.0269,22.8756 C68.3879,20.2216 70.1439,18.7546 70.1439,18.7546" id="Fill-21" fill="#FFFFFF"></path>
                <path d="M83.0775,22.9622 C82.7615,23.0412 82.2915,23.1552 82.2005,23.3792 C81.8315,24.2932 80.9325,24.2952 80.3505,24.2002 C80.2535,24.1842 80.1565,24.1712 80.0605,24.1612 C78.4375,23.9882 76.9265,24.5962 75.3495,24.6572 C74.9795,24.8642 74.6095,25.1402 74.2745,25.5112 C72.8635,27.0762 66.9625,26.8452 66.9625,26.8452 C66.9625,26.8452 67.9115,26.8962 67.9635,23.7142 C67.9685,23.4232 67.9905,23.1432 68.0265,22.8752 C67.9595,23.0762 67.8915,23.2772 67.8255,23.4792 C67.7855,23.6022 67.7445,23.7262 67.7045,23.8492 C67.1355,25.6002 65.6735,26.5032 63.5665,26.2362 C63.5665,26.2362 62.3875,24.0572 62.3185,22.8252 C62.2785,22.1112 62.8125,21.4782 63.3035,20.7512 C63.2845,20.6372 63.2655,20.5242 63.2495,20.4092 C63.2295,20.2812 63.2435,20.0982 63.1665,20.0352 C62.2045,19.2662 62.7255,18.3772 62.9735,17.5352 C63.0745,17.1942 63.1795,16.8552 63.2865,16.5162 L62.1125,16.9102 C62.1125,16.9102 61.2585,20.3622 59.3085,20.5332 C57.3595,20.7042 54.9655,23.2362 54.9655,23.2362 C54.9655,23.2362 55.1345,20.3282 55.4755,18.5602 C55.8135,16.8162 55.8175,15.8042 55.2615,13.5452 C55.2675,13.5852 55.2735,13.6252 55.2805,13.6642 C55.5815,15.4382 54.7565,16.8692 54.3215,18.4252 C54.2895,18.5382 54.2515,18.6472 54.2105,18.7542 C53.9835,19.3422 53.6095,19.8412 53.0565,20.1852 C52.8335,20.3232 52.5295,20.3332 52.3805,20.3712 C52.0875,19.9042 51.9605,19.4362 51.6635,19.2712 C50.3805,18.5522 49.1265,17.7332 47.6395,17.4732 C48.1975,18.3742 48.6655,19.0962 48.6655,19.0962 C48.6655,19.0962 48.6165,20.5852 49.0785,22.3092 C49.5405,24.0332 52.5815,25.2032 52.5815,25.2032 C52.5815,25.2032 48.0415,25.4412 47.5745,22.6372 C47.4585,22.6502 47.3265,22.6132 47.2095,22.5282 C45.9325,21.5962 44.6685,21.8702 43.4435,22.5612 C42.5675,23.0542 41.7105,23.1632 40.7165,23.0172 L40.5255,22.9892 C39.5145,22.8412 38.5045,22.6922 37.3315,22.1692 C38.8655,20.7612 40.2805,19.4632 41.6715,18.1872 C42.2785,18.3432 42.8695,18.5452 43.4245,18.7662 C45.4975,19.5942 47.0605,20.6932 47.0605,20.6932 C45.6445,17.8542 41.5865,14.8112 41.5865,14.8112 C41.5865,14.8112 38.9695,16.7872 38.9185,16.2742 C38.8665,15.7602 36.5565,12.7932 36.5565,12.7932 C36.5565,12.7932 39.5335,9.5512 39.8415,8.8842 C40.1495,8.2172 43.0225,4.6762 43.6275,5.0352 C43.9575,5.2322 43.9265,5.9032 43.8305,6.4722 C44.9885,4.6082 45.7595,1.4432 45.7595,1.4432 C45.7595,1.4432 46.4505,3.7592 46.7665,5.3382 C47.1315,4.6672 47.7075,4.1702 48.8095,3.9892 C50.1775,5.3052 51.6135,6.6832 53.0455,8.0672 C54.1355,9.1222 55.2195,10.1832 56.3525,11.2882 C56.3525,11.2882 58.8965,10.8512 59.6495,10.5782 C60.4025,10.3042 61.1555,8.7982 61.2495,8.5592 C61.3445,8.3192 63.6525,7.5842 63.6525,7.5842 C63.6525,7.5842 64.4565,9.0042 64.9185,9.5342 C65.3805,10.0652 67.3645,10.8172 67.6555,11.2622 C67.9455,11.7072 68.0315,12.6822 68.0495,12.7932 C68.0565,12.8482 68.9195,13.7282 69.7725,14.5862 C70.3485,15.1102 70.9075,15.6642 71.4435,16.2552 C71.4415,17.5302 70.7285,18.5062 70.1345,19.5672 C70.2255,19.9902 70.5145,20.4432 71.2995,20.5592 C72.8635,20.7902 73.6345,19.6482 74.5655,19.3272 C75.4985,19.0062 78.6105,18.7372 78.6105,18.7372 C78.7345,18.7222 78.8835,18.7242 78.9905,18.7772 C81.1125,19.8412 83.4675,20.4232 85.5285,21.9282 C84.7775,22.6112 83.9175,22.7542 83.0775,22.9622 L83.0775,22.9622 Z M36.5135,17.3542 C35.8835,18.2672 35.5175,19.2812 35.3515,20.3792 C35.2495,21.0632 35.0805,21.7332 34.5025,22.2132 C34.4655,22.2442 34.4275,22.2762 34.3895,22.3092 C34.2245,22.4522 34.0625,22.6162 33.9965,22.8022 C33.6535,23.7582 32.9765,23.9262 32.0605,23.8032 C31.4265,23.7172 30.7705,23.7872 29.9605,23.7872 C30.3095,21.4122 30.7665,19.2832 31.6745,17.2392 C32.1385,16.1912 32.8415,15.5572 33.8135,15.1132 C34.0855,14.9892 34.3775,14.9092 34.6545,14.8112 C35.3405,15.0682 35.9945,15.2842 36.4615,15.9622 C36.8285,16.4942 36.8505,16.8652 36.5135,17.3542 L36.5135,17.3542 Z M91.6765,22.5622 C91.2785,22.3872 90.8855,22.2122 90.4945,22.0392 C89.5055,21.6002 88.5695,21.1862 87.6095,20.7722 C87.3385,20.6552 87.0685,20.5602 86.8085,20.4672 C86.5365,20.3702 86.2795,20.2792 86.0425,20.1712 C85.2475,19.8122 84.4405,19.4362 83.6615,19.0732 C82.8155,18.6792 81.9405,18.2722 81.0735,17.8802 C80.9865,17.8412 80.8985,17.8032 80.8115,17.7642 C79.9975,17.4042 79.4865,17.1572 79.2475,16.6352 L78.9475,15.9812 L78.2395,16.1112 C78.0125,16.1532 77.7965,16.2052 77.5875,16.2542 C77.2195,16.3402 76.8705,16.4222 76.5825,16.4222 C76.3485,16.4222 76.1745,16.3692 76.0005,16.2452 C75.6445,15.9902 75.2885,15.7372 74.9315,15.4842 C73.5505,14.5032 72.1205,13.4892 70.8105,12.4022 C70.7465,12.3492 70.6805,12.2952 70.6125,12.2412 C70.0655,11.7982 69.7285,11.5042 69.7005,11.0342 C69.6445,10.1242 68.5935,9.6222 68.4735,9.5672 C67.2175,8.9972 66.2975,8.3292 65.5785,7.4672 C65.2865,7.1172 64.9895,6.7932 64.6765,6.4502 C64.5375,6.2992 64.3975,6.1472 64.2565,5.9892 L63.8565,5.5452 L63.2875,5.7272 C63.1325,5.7772 62.9895,5.8372 62.8635,5.8922 C62.7675,5.9322 62.6275,5.9922 62.5615,6.0072 C62.4655,5.9972 62.3695,5.9912 62.2765,5.9912 C61.1155,5.9912 60.5305,6.8102 60.2495,7.2042 C60.0575,7.4712 59.7505,7.7502 59.3585,8.0102 C58.7875,8.3912 58.1775,8.7162 57.5295,9.0602 L57.4085,9.1242 C57.2365,9.2162 57.0435,9.2992 56.8385,9.3842 C56.6975,9.2562 56.5585,9.1292 56.4225,9.0052 C55.7645,8.4082 55.1435,7.8452 54.5475,7.2582 C54.4035,7.1172 54.2645,6.9242 54.1165,6.7212 C53.9065,6.4322 53.6685,6.1052 53.3475,5.8262 C52.4655,5.0582 51.5535,4.3042 50.6715,3.5752 C50.0665,3.0762 49.4415,2.5602 48.8365,2.0462 C48.3765,1.6572 47.9185,1.2322 47.4755,0.8222 C47.2705,0.6312 47.0575,0.4342 46.8465,0.2412 L46.5815,0.0002 L46.2235,0.0002 L45.1775,0.0002 L44.6775,0.0002 L44.4035,0.4192 C43.6765,1.5342 42.8315,2.4532 41.8205,3.2312 C41.0765,3.8032 40.4605,4.4932 39.8435,5.2082 C39.2145,5.9362 38.5885,6.6842 37.9835,7.4072 C37.0555,8.5172 36.0945,9.6652 35.1145,10.7502 C34.6205,11.2982 34.2335,11.6862 33.7655,11.6862 C33.6945,11.6862 33.6185,11.6772 33.5405,11.6612 C33.4635,11.6462 33.3845,11.6372 33.3055,11.6372 C32.9715,11.6372 32.7045,11.7762 32.5285,11.8682 C32.4965,11.8852 32.4485,11.9102 32.4315,11.9172 C31.2945,12.3532 30.4775,13.1162 29.6885,13.8552 C29.6325,13.9082 29.5755,13.9612 29.5185,14.0132 C28.2685,15.1772 27.0175,16.3412 25.7675,17.5052 C24.8165,18.3902 23.8665,19.2742 22.9155,20.1592 C22.6485,20.4072 22.3815,20.6552 22.1145,20.9032 C21.2815,21.6772 20.4195,22.4772 19.5805,23.2772 C19.2405,23.6012 18.8665,23.9912 18.7215,24.5182 C18.6785,24.6732 18.6655,24.8252 18.6695,24.9692 C18.2415,25.0762 17.8865,25.3262 17.6605,25.6822 C17.4255,26.0532 17.3535,26.5142 17.4655,26.9472 C17.6085,27.5012 18.0845,27.7822 18.3985,27.9692 C18.4675,28.0092 18.5305,28.0472 18.5745,28.0772 C18.7445,28.1942 18.9465,28.2552 19.1595,28.2552 C19.2805,28.2552 19.3815,28.2362 19.4405,28.2242 L19.4425,28.2242 C20.0865,28.1872 20.7395,28.1472 21.3705,28.1072 C22.9325,28.0102 24.5485,27.9102 26.1325,27.8582 C26.5135,27.8452 26.9075,27.8322 27.2995,27.8322 C28.1025,27.8322 28.7225,27.8922 29.2465,28.0202 C31.0545,28.4592 32.9005,28.6392 34.5295,28.7982 C34.6625,28.8112 34.7975,28.8172 34.9285,28.8172 C35.6245,28.8172 36.2955,28.6402 37.0375,28.2602 L37.1445,28.2042 C37.7385,27.8992 38.3515,27.5842 38.9035,27.5102 C40.4755,27.2982 41.7625,27.1992 42.9525,27.1992 C43.7735,27.1992 44.5315,27.2462 45.2705,27.3422 C46.3605,27.4842 47.5165,27.5532 48.8065,27.5532 C49.2795,27.5532 49.7655,27.5442 50.2935,27.5252 C50.4505,27.5202 50.6165,27.5142 50.7725,27.5142 C51.5475,27.5142 51.8675,27.6382 52.1445,28.0452 L52.4955,28.5592 L53.1035,28.4272 C53.1945,28.4072 53.2725,28.3872 53.3425,28.3682 C53.3875,28.3572 53.4455,28.3402 53.4735,28.3362 L53.4805,28.3362 C55.0335,28.3172 56.6385,28.2992 58.2145,28.2992 C58.3985,28.2992 58.5825,28.2992 58.7665,28.3002 C58.9325,28.3002 59.3215,28.3022 59.5305,28.3942 C61.3145,29.1882 63.1865,29.6522 64.9975,30.1012 C65.3375,30.1862 65.6875,30.2732 66.0305,30.3602 C66.1445,30.3892 66.2625,30.4032 66.3915,30.4032 C66.4625,30.4032 66.5235,30.3992 66.5735,30.3962 C66.5925,30.3942 66.6105,30.3932 66.6295,30.3922 L67.0985,30.3922 L67.3745,30.0132 L67.5255,29.8062 L68.6625,29.8582 L69.1985,29.8822 L70.1635,29.9252 L70.1635,29.0642 C70.2815,29.0642 70.3875,29.0622 70.4885,29.0582 C71.0675,29.0402 71.6595,29.0252 72.2315,29.0122 C73.7195,28.9762 75.2575,28.9392 76.7755,28.8282 C77.4735,28.7772 78.1125,28.5892 78.7295,28.4082 C79.3655,28.2212 79.9665,28.0442 80.5575,28.0442 C80.5815,28.0442 80.6035,28.0452 80.6275,28.0452 C80.7035,28.0462 80.7795,28.0472 80.8555,28.0472 C81.3235,28.0472 81.7835,28.0162 82.2285,27.9852 C82.4505,27.9702 82.6805,27.9552 82.9015,27.9442 L83.4585,27.9162 L83.6935,27.4112 L83.9005,26.9652 C84.0775,26.9622 84.2445,26.9602 84.4095,26.9602 C84.6395,26.9602 84.8265,26.9652 84.9975,26.9752 C85.1005,26.9822 85.2045,26.9852 85.3065,26.9852 C86.3265,26.9852 87.3105,26.6842 88.2325,26.0892 C88.6095,25.8462 88.9295,25.7332 89.2375,25.7332 C89.2775,25.7332 89.3175,25.7352 89.3575,25.7392 C89.4625,25.7482 89.5645,25.7532 89.6635,25.7532 C91.4435,25.7532 92.5215,25.0322 92.7015,24.5292 L95.0215,24.3722 L91.6765,22.5622 Z" id="Fill-23" fill="#231815"></path>
                <path d="M52.3783,14.9329 C52.5343,13.9779 52.0633,13.2379 51.4223,12.5429 C51.0553,12.1459 50.8023,11.6049 50.6193,11.0859 C50.3083,10.1999 50.0933,9.2809 49.8233,8.3259 C48.8523,8.6639 48.6153,9.2699 48.6733,10.1139 C48.7323,10.9799 48.6813,11.8549 48.6913,12.7249 C48.6933,12.8469 48.7733,12.9679 48.8143,13.0809 C49.1803,13.2039 49.5303,13.3209 49.9673,13.4669 C49.6593,14.4859 50.2563,15.0579 50.8963,15.6239 C51.4803,16.1419 52.0223,16.7069 52.6173,17.2109 C52.7343,17.3109 53.0083,17.2259 53.2943,17.2259 C53.1833,16.9709 53.1623,16.8259 53.0793,16.7479 C52.5523,16.2519 52.2493,15.7159 52.3783,14.9329" id="Fill-25" fill="#231815"></path>
                <path d="M62.1469,11.8093 C62.0439,9.6543 63.6529,7.5843 63.6529,7.5843 C63.6529,7.5843 61.3439,8.3193 61.2499,8.5593 C61.1559,8.7983 60.4029,10.3043 59.6499,10.5783 C58.8969,10.8513 56.3529,11.2883 56.3529,11.2883 C56.3529,11.2883 54.6589,11.1253 55.2389,13.4513 C55.2469,13.4833 55.2539,13.5133 55.2609,13.5443 C55.8179,15.8043 55.8139,16.8153 55.4759,18.5593 C55.1339,20.3283 54.9649,23.2363 54.9649,23.2363 C54.9649,23.2363 57.3599,20.7043 59.3089,20.5333 C61.2579,20.3623 62.1129,16.9103 62.1129,16.9103 L63.2869,16.5163 L63.6529,16.3933 C63.6529,16.3933 62.2509,13.9643 62.1469,11.8093" id="Fill-27" fill="#C8C9CA"></path>
                <path d="M46.9232,6.4724 C46.9232,6.2134 46.8612,5.8084 46.7672,5.3384 C46.4502,3.7594 45.7592,1.4434 45.7592,1.4434 C45.7592,1.4434 44.9882,4.6084 43.8302,6.4724 C43.7512,6.9434 43.6272,7.3454 43.6272,7.3454 C42.9002,9.1904 41.5862,14.8104 41.5862,14.8104 C41.5862,14.8104 45.6452,17.8534 47.0612,20.6934 C47.0612,20.6934 45.4972,19.5944 43.4242,18.7664 C43.6932,19.3134 43.7702,19.9074 43.1772,20.2734 C41.9682,21.0204 39.7462,21.6904 40.5262,22.9894 L40.7162,23.0164 C41.7102,23.1624 42.5682,23.0544 43.4442,22.5604 C44.6682,21.8694 45.9332,21.5964 47.2092,22.5284 C47.3262,22.6134 47.4582,22.6504 47.5742,22.6374 C48.0412,25.4404 52.5812,25.2024 52.5812,25.2024 C52.5812,25.2024 49.5402,24.0334 49.0782,22.3084 C48.6162,20.5844 48.6652,19.0964 48.6652,19.0964 C48.6652,19.0964 48.1972,18.3744 47.6392,17.4734 C46.9422,16.3504 46.1022,14.9504 45.8462,14.3244 C45.3842,13.1954 46.9232,7.6014 46.9232,6.4724" id="Fill-29" fill="#FFFFFF"></path>
                <path d="M43.8304,6.4719 C43.9264,5.9029 43.9574,5.2319 43.6274,5.0349 C43.0224,4.6769 40.1494,8.2169 39.8414,8.8839 C39.5334,9.5519 36.5574,12.7929 36.5574,12.7929 C36.5574,12.7929 38.8664,15.7609 38.9184,16.2739 C38.9694,16.7869 41.5864,14.8109 41.5864,14.8109 C41.5864,14.8109 42.8994,9.1909 43.6274,7.3449 C43.6274,7.3449 43.7514,6.9439 43.8304,6.4719" id="Fill-31" fill="#C8C9CA"></path>
                <path d="M106.0082,45.6072 L106.0082,29.9212 L106.1572,29.6692 L110.7002,22.0142 L101.7992,22.0142 L96.6002,22.0142 L87.6972,22.0142 L87.6982,22.0152 L84.6392,22.0152 L84.6402,22.0142 L77.8432,22.0142 L68.9432,22.0142 L63.7432,22.0142 L59.7762,22.0142 L54.8422,22.0142 L54.1922,22.0142 C53.4112,22.0142 52.6642,22.1532 51.9652,22.3962 C51.2682,22.1522 50.5222,22.0142 49.7432,22.0142 L49.0302,22.0142 L42.8552,22.0142 L40.1292,22.0142 L34.9282,22.0142 L26.0262,22.0142 L26.0272,22.0152 L21.9052,22.0152 L19.2292,22.0152 L18.9762,22.0152 C18.9692,22.0152 18.9622,22.0142 18.9552,22.0142 L9.7612,22.0142 L0.8562,22.0142 L5.4032,29.6702 L5.5542,29.9242 L5.5542,45.6052 L5.4042,45.8552 L0.8492,53.5142 L9.7612,53.5142 L13.0002,53.5142 L18.9222,53.5142 L19.2292,53.5142 L21.9052,53.5142 L27.1072,53.5142 L28.1302,53.5142 L33.3312,53.5142 L36.0122,53.5142 L42.2342,53.5142 L42.8552,53.5142 L43.0002,53.5142 L45.4242,54.9132 L48.9042,56.9212 L56.5062,61.3082 L56.5062,53.5142 L60.9902,53.5142 L63.7432,53.5142 L67.8822,53.5142 L68.9432,53.5142 L76.7732,53.5142 L77.8432,53.5142 L80.9012,53.5142 L81.9722,53.5142 L84.6402,53.5142 L89.8032,53.5142 L90.8622,53.5142 L95.0022,53.5142 L97.6592,53.5142 L103.9042,53.5142 L110.6962,53.5142 L106.1582,45.8612 L106.0082,45.6072 Z" id="Fill-33" fill="#231815"></path>
                <path d="M16.5414,44.9675 C17.0214,44.9675 17.4144,44.5765 17.4144,44.0935 L17.4144,39.0625 C17.4144,38.5915 17.0314,38.2115 16.5624,38.2115 L14.0964,38.2115 L14.0964,44.9675 L16.5414,44.9675 Z M17.4144,33.8805 L17.4144,31.4365 C17.4144,30.9545 17.0214,30.5635 16.5414,30.5635 L14.0964,30.5635 L14.0964,34.7305 L16.5624,34.7305 C17.0314,34.7305 17.4144,34.3505 17.4144,33.8805 L17.4144,33.8805 Z M18.9504,27.0835 C20.0234,27.0835 20.8934,27.9535 20.8934,29.0275 L20.8934,34.7515 C20.8934,35.7005 20.1224,36.4705 19.1724,36.4705 C20.1224,36.4705 20.8934,37.2405 20.8934,38.1915 L20.8934,46.4695 C20.8934,47.5625 20.0084,48.4465 18.9164,48.4465 L9.7564,48.4465 L10.3674,47.4185 C10.5294,47.1425 10.6174,46.8275 10.6174,46.5065 L10.6174,29.0605 C10.6174,28.7165 10.5234,28.3765 10.3484,28.0805 L9.7564,27.0835 L18.9504,27.0835 Z" id="Fill-35" fill="#FFFFFF"></path>
                <path d="M26.2406,46.4812 C26.2406,46.8182 26.3316,47.1502 26.5046,47.4402 L27.1016,48.4472 L21.9006,48.4472 L22.4986,47.4402 C22.6706,47.1502 22.7616,46.8192 22.7616,46.4822 L22.7616,29.0502 C22.7616,28.7122 22.6706,28.3802 22.4986,28.0902 L21.9006,27.0852 L27.1016,27.0852 L26.5046,28.0902 C26.3316,28.3802 26.2406,28.7122 26.2406,29.0502 L26.2406,46.4812 Z" id="Fill-37" fill="#FFFFFF"></path>
                <path d="M39.2621,46.5374 C39.2621,46.8374 39.3431,47.1334 39.4971,47.3914 L40.1211,48.4474 L34.9221,48.4474 L35.0571,48.2194 C35.3001,47.8104 35.3581,47.3184 35.2151,46.8654 L32.4651,38.0594 L32.4651,46.5374 C32.4651,46.8384 32.5461,47.1334 32.7001,47.3924 L33.3261,48.4474 L28.1251,48.4474 L28.7511,47.3924 C28.9061,47.1334 28.9871,46.8384 28.9871,46.5374 L28.9871,28.9944 C28.9871,28.6934 28.9061,28.3984 28.7511,28.1394 L28.1251,27.0844 L33.3261,27.0844 L33.1781,27.3344 C32.9351,27.7434 32.8771,28.2364 33.0201,28.6894 L35.7831,37.5384 L35.7831,28.9934 C35.7831,28.6924 35.7021,28.3974 35.5481,28.1384 L34.9221,27.0834 L40.1231,27.0834 L39.4971,28.1384 C39.3431,28.3974 39.2621,28.6924 39.2621,28.9934 L39.2621,46.5374 Z" id="Fill-39" fill="#FFFFFF"></path>
                <path d="M47.9545,36.2639 L47.9545,30.5639 L44.6365,30.5639 L44.6365,44.9679 L47.9545,44.9679 L47.9545,43.1099 L47.9525,41.0679 L47.9545,41.0669 L45.8715,39.8649 L51.4335,36.6529 L51.4335,52.5329 L47.9525,50.5239 L47.9525,48.4469 L42.8505,48.4469 C41.9155,48.4469 41.1545,47.6889 41.1545,46.7519 L41.1545,28.7789 C41.1545,27.8419 41.9155,27.0839 42.8505,27.0839 L49.7375,27.0839 C50.6745,27.0839 51.4335,27.8419 51.4335,28.7789 L51.4335,33.2089 C51.4335,33.8559 51.0885,34.4529 50.5275,34.7769 L47.9545,36.2639 Z" id="Fill-41" fill="#FFFFFF"></path>
                <path d="M59.7699,27.0847 L60.9859,27.0847 C61.9459,27.0847 62.7239,27.8617 62.7239,28.8217 L62.7239,31.4237 L61.7139,30.8247 C61.4249,30.6547 61.0969,30.5637 60.7619,30.5637 L56.7469,30.5637 C56.2929,30.5637 55.9269,30.9307 55.9269,31.3827 L55.9269,33.9787 C55.9269,34.3947 56.2639,34.7307 56.6789,34.7307 L60.9859,34.7307 C61.9459,34.7307 62.7239,35.5097 62.7239,36.4697 L62.7239,46.7087 C62.7239,47.6687 61.9459,48.4467 60.9859,48.4467 L54.1849,48.4467 C53.2249,48.4467 52.4469,47.6687 52.4469,46.7087 L52.4469,42.5597 C52.4469,41.9387 52.7789,41.3647 53.3159,41.0537 L55.9269,39.5467 L55.9269,44.1217 C55.9269,44.5887 56.3049,44.9677 56.7729,44.9677 L58.4749,44.9677 C58.9009,44.9677 59.2439,44.6227 59.2439,44.1977 L59.2439,39.0297 C59.2439,38.5767 58.8769,38.2097 58.4239,38.2097 L54.1869,38.2097 C53.2269,38.2097 52.4489,37.4317 52.4489,36.4717 L52.4489,28.8217 C52.4489,27.8617 53.2269,27.0837 54.1869,27.0837 L59.7699,27.0837 L59.7699,27.0847 Z" id="Fill-43" fill="#FFFFFF"></path>
                <path d="M74.8744,46.4832 C74.8744,46.8192 74.9664,47.1492 75.1364,47.4392 L75.7334,48.4472 L70.5344,48.4472 L71.1334,47.4392 C71.3034,47.1492 71.3944,46.8182 71.3944,46.4832 L71.3944,37.5232 L68.0774,39.4372 L68.0774,46.4832 C68.0774,46.8192 68.1694,47.1492 68.3394,47.4392 L68.9374,48.4472 L63.7374,48.4472 L64.3354,47.4392 C64.5064,47.1492 64.5974,46.8182 64.5974,46.4832 L64.5974,29.0482 C64.5974,28.7112 64.5064,28.3802 64.3354,28.0912 L63.7374,27.0842 L68.9374,27.0842 L68.3394,28.0912 C68.1694,28.3812 68.0774,28.7112 68.0774,29.0482 L68.0774,35.4192 L71.3944,33.5042 L71.3944,29.0482 C71.3944,28.7112 71.3034,28.3802 71.1334,28.0912 L70.5344,27.0842 L75.7334,27.0842 L75.1364,28.0912 C74.9664,28.3812 74.8744,28.7112 74.8744,29.0482 L74.8744,46.4832 Z" id="Fill-45" fill="#FFFFFF"></path>
                <path d="M84.4242,33.5037 L84.4242,30.5637 L81.1082,30.5637 L81.1082,35.4197 L84.4242,33.5037 Z M87.9042,46.5127 C87.9042,46.8297 87.9892,47.1417 88.1522,47.4137 L88.7642,48.4467 L83.5652,48.4467 L84.1762,47.4137 C84.3382,47.1407 84.4242,46.8297 84.4242,46.5127 L84.4242,37.5227 L81.1082,39.4377 L81.1082,46.5127 C81.1082,46.8297 81.1932,47.1417 81.3552,47.4137 L81.9672,48.4467 L76.7682,48.4467 L77.3792,47.4137 C77.5412,47.1407 77.6272,46.8297 77.6272,46.5127 L77.6272,29.0197 C77.6272,28.7017 77.5412,28.3907 77.3792,28.1177 L76.7682,27.0847 L88.7642,27.0847 L88.1522,28.1177 C87.9892,28.3907 87.9042,28.7017 87.9042,29.0197 L87.9042,46.5127 Z" id="Fill-47" fill="#FFFFFF"></path>
                <path d="M100.934,46.5374 C100.934,46.8374 101.015,47.1334 101.168,47.3914 L101.793,48.4474 L96.594,48.4474 L96.729,48.2194 C96.97,47.8104 97.028,47.3184 96.887,46.8654 L94.137,38.0594 L94.137,46.5374 C94.137,46.8384 94.218,47.1334 94.371,47.3924 L94.997,48.4474 L89.797,48.4474 L90.423,47.3924 C90.576,47.1334 90.657,46.8384 90.657,46.5374 L90.657,28.9944 C90.657,28.6934 90.576,28.3984 90.423,28.1394 L89.797,27.0844 L94.997,27.0844 L94.848,27.3344 C94.607,27.7434 94.549,28.2364 94.692,28.6894 L97.454,37.5384 L97.454,28.9934 C97.454,28.6924 97.372,28.3974 97.22,28.1384 L96.594,27.0834 L101.793,27.0834 L101.168,28.1384 C101.015,28.3974 100.934,28.6924 100.934,28.9934 L100.934,46.5374 Z" id="Fill-49" fill="#FFFFFF"></path>
                <path d="M85.7455,24.7043 L83.5995,27.0533 L82.6415,28.5893 L80.7655,30.9903 L81.2885,31.8723 L81.1165,32.6113 L81.1805,34.2583 L79.5205,37.8293 L82.1145,34.3133 L82.1825,32.4163 C82.1825,32.4163 82.6185,31.8783 82.5955,31.7733 C82.5725,31.6673 82.2015,30.6413 82.2015,30.6413 L84.2195,28.2093 L86.6935,25.1623 L85.7455,24.7043 Z" id="Fill-51" fill="#231815"></path>
                <path d="M83.7523,24.8718 C83.6303,24.8168 83.5223,24.7388 83.4273,24.6368 C83.2973,24.5168 83.2053,24.3738 83.1513,24.2088 C83.1133,24.1368 83.0853,24.0608 83.0663,23.9828 L81.7053,25.4718 L80.7483,27.0088 L78.8713,29.4088 L79.3953,30.2908 L79.2233,31.0298 L79.2863,32.6768 L77.6273,36.2478 L80.2213,32.7318 L80.2883,30.8348 C80.2883,30.8348 80.7253,30.2978 80.7013,30.1918 C80.6793,30.0858 80.3083,29.0598 80.3083,29.0598 L82.3253,26.6288 L83.7523,24.8718 Z" id="Fill-53" fill="#231815"></path>
                <path d="M88.0023,26.428 L85.8563,28.777 L84.8983,30.313 L83.0213,32.714 L83.5453,33.596 L83.3733,34.335 L83.4363,35.982 L81.7763,39.553 L84.3703,36.037 L84.4383,34.14 C84.4383,34.14 84.8753,33.602 84.8523,33.497 C84.8293,33.391 84.4583,32.365 84.4583,32.365 L86.4763,29.933 L88.9503,26.886 L88.0023,26.428 Z" id="Fill-55" fill="#231815"></path>
                <g transform="translate(19.000000, 49.131000)">
                    <mask id="mask-4" fill="white">
                        <use xlink:href="#path-3"></use>
                    </mask>
                    <g id="Clip-58"></g>
                    <path d="M63.0804,0.8902 C55.4964,-0.6058 51.8484,4.1652 51.8484,4.1652 C51.8484,4.1652 47.1754,2.7502 42.6254,3.3562 C38.7174,3.8772 36.8784,5.6962 36.4764,6.1862 C36.0734,5.6962 34.5114,3.8772 30.6034,3.3562 C26.0544,2.7502 21.3814,4.1652 21.3814,4.1652 C21.3814,4.1652 17.7324,-0.6058 10.1484,0.8902 C2.5654,2.3862 -4.5256,12.8572 5.6404,25.3092 C5.6404,25.3092 -5.8376,39.2572 9.0424,63.7572 L9.7184,60.2202 C9.7184,60.2202 14.6424,70.1812 25.7274,76.4722 L25.7154,76.5532 L24.1574,79.0592 C29.9784,81.4042 36.1274,77.1192 36.1274,77.1192 C35.7594,78.3322 34.5284,81.0002 34.5284,81.0002 C54.8194,77.8062 63.5104,60.2202 63.5104,60.2202 L64.1864,63.7572 C79.0664,39.2572 67.5894,25.3092 67.5894,25.3092 C77.7554,12.8572 70.6634,2.3862 63.0804,0.8902" id="Fill-57" fill="#231815" mask="url(#mask-4)"></path>
                </g>
                <path d="M84.847,78.6248 C88.701,86.8318 84.97,101.4268 84.97,101.4268 L83.453,98.8388 C83.453,98.8398 83.452,98.8408 83.452,98.8408 C83.451,98.8478 83.445,98.8788 83.433,98.9328 C83.141,100.2438 79.546,115.0398 64.163,123.3668 C62.839,124.0828 61.428,124.7518 59.924,125.3598 C59.947,125.3278 61.043,123.7968 61.616,122.1148 C62.037,120.8768 62.176,119.5578 61.4,118.6898 C61.4,118.6898 60.616,119.6378 59.193,120.8368 C57.885,121.9388 56.038,123.2518 53.766,124.2338 C53.261,124.4528 52.736,124.6538 52.191,124.8328 C51.212,125.1548 50.17,125.4048 49.073,125.5478 C48.394,125.6368 47.694,125.6858 46.974,125.6858 C47.114,125.4618 47.308,125.0898 47.508,124.6238 C47.745,124.0708 47.991,123.3838 48.163,122.6538 C48.095,122.6298 48.028,122.6058 47.96,122.5818 C40.283,119.8008 35.195,113.6328 32.046,108.2368 C28.997,103.0128 27.768,98.5118 27.768,98.5118 L27.308,99.2898 L27.18,99.5068 L26.046,101.4268 C26.046,101.4268 22.316,86.8318 26.168,78.6248 C30.022,70.4178 35.392,67.1838 35.392,67.1838 C30.815,67.6418 28.008,70.7728 27.105,71.9518 C26.891,72.2288 26.784,72.3988 26.784,72.3988 C20.102,64.9998 24.939,55.2168 30.145,54.1248 C35.351,53.0338 37.401,56.6308 37.401,56.6308 L37.225,57.8268 L37.19,58.0658 L36.662,61.6448 C36.662,61.6448 40.721,56.1058 45.804,56.1458 C50.887,56.1868 55.416,60.0878 55.416,60.0878 C55.416,60.0878 55.517,60.1688 55.599,60.0878 C55.599,60.0878 60.128,56.1868 65.211,56.1458 C70.294,56.1058 74.353,61.6448 74.353,61.6448 L73.616,56.6308 C73.616,56.6308 75.664,53.0338 80.87,54.1248 C86.076,55.2168 90.913,64.9998 84.232,72.3988 C84.232,72.3988 84.149,72.2678 83.984,72.0478 C83.166,70.9548 80.332,67.6548 75.623,67.1838 L75.625,67.1848 L75.648,67.1978 L75.666,67.2098 L75.671,67.2128 C76.206,67.5518 81.204,70.8668 84.847,78.6248" id="Fill-59" fill="#FFFFFF"></path>
                <path d="M81.2035,69.3391 C81.2035,69.3391 80.5455,60.0331 75.8725,59.6021 C75.8725,59.6021 77.7145,57.3431 80.3815,57.9221 C83.0245,58.4951 84.7685,61.4881 84.7255,65.1361 C84.6785,69.2511 80.7065,69.9861 80.7065,69.9861 L81.2035,69.3391 Z" id="Fill-61" fill="#C8C9CA"></path>
                <path d="M29.2201,69.3391 C29.2201,69.3391 29.8781,60.0331 34.5511,59.6021 C34.5511,59.6021 32.7091,57.3431 30.0421,57.9221 C27.3991,58.4951 25.6551,61.4881 25.6981,65.1361 C25.7451,69.2511 29.7171,69.9861 29.7171,69.9861 L29.2201,69.3391 Z" id="Fill-63" fill="#C8C9CA"></path>
                <path d="M72.5697,70.2346 C72.5697,70.2346 74.3327,72.5296 73.7987,76.2606 C73.2667,79.9906 70.3817,81.2206 69.2007,81.2206 L70.6837,83.2906 L65.4807,80.8926 C65.4807,80.8926 67.1557,83.7076 64.6767,85.5176 C64.6767,85.5176 63.8387,83.2656 63.2037,82.0586 C62.5677,80.8516 61.1737,77.5716 61.1737,77.5716 L63.8797,75.1616 L72.5697,70.2346 Z" id="Fill-65" fill="#C8C9CA"></path>
                <path d="M38.5443,70.2346 C38.5443,70.2346 36.7813,72.5296 37.3153,76.2606 C37.8473,79.9906 40.7323,81.2206 41.9133,81.2206 L40.4303,83.2906 L45.6333,80.8926 C45.6333,80.8926 43.9583,83.7076 46.4373,85.5176 C46.4373,85.5176 47.2753,83.2656 47.9103,82.0586 C48.5463,80.8516 49.9403,77.5716 49.9403,77.5716 L47.2343,75.1616 L38.5443,70.2346 Z" id="Fill-67" fill="#C8C9CA"></path>
                <path d="M58.7299,78.9856 C58.7299,78.9856 55.7329,76.9146 52.4479,78.9856 L51.3769,76.7936 L53.5489,74.9486 C54.8749,76.1866 56.2439,76.1156 57.6489,74.9486 C57.6489,74.9486 60.0159,76.7096 58.7299,78.9856" id="Fill-69" fill="#C8C9CA"></path>
                <path d="M75.2347,107.2502 C75.1597,107.3962 75.0717,107.5422 74.9717,107.6882 L75.2347,107.2502 Z" id="Fill-71" fill="#231815"></path>
                <path d="M83.4525,98.8411 C83.4165,99.0171 80.1775,114.6981 64.1635,123.3661 C62.8395,124.0831 61.4285,124.7521 59.9245,125.3601 C59.9465,125.3271 61.0435,123.7971 61.6155,122.1141 C62.0375,120.8771 62.1765,119.5581 61.3995,118.6901 C61.3995,118.6901 60.6155,119.6381 59.1925,120.8371 C57.8855,121.9391 56.0385,123.2521 53.7655,124.2341 C53.2615,124.4521 52.7355,124.6531 52.1905,124.8321 C51.2125,125.1541 50.1705,125.4041 49.0725,125.5481 C48.3935,125.6371 47.6935,125.6861 46.9735,125.6861 C47.1135,125.4621 47.3075,125.0901 47.5085,124.6231 C47.7455,124.0701 47.9905,123.3841 48.1635,122.6531 C48.0955,122.6301 48.0275,122.6061 47.9605,122.5811 C49.7235,121.8141 52.7855,120.2971 55.1475,118.1541 C55.1985,118.1081 55.2505,118.0631 55.3015,118.0171 C58.8285,114.9311 64.0945,114.0551 64.0945,114.0551 C64.0945,114.0551 72.6715,111.0431 74.9725,107.6881 L68.5935,118.3191 C74.9455,113.2261 80.5305,107.3661 83.4525,98.8411" id="Fill-73" fill="#C8C9CA"></path>
                <path d="M35.3685,107.2502 L35.6315,107.6882 C35.5315,107.5422 35.4435,107.3962 35.3685,107.2502" id="Fill-75" fill="#231815"></path>
                <path d="M59.1927,120.8372 C57.8847,121.9392 56.0387,123.2522 53.7657,124.2332 C52.4557,123.2132 51.5197,122.3352 51.5197,122.3352 L52.1907,124.8322 C51.2127,125.1542 50.1707,125.4042 49.0727,125.5482 C48.5787,125.2582 48.0537,124.9472 47.5077,124.6232 C47.7457,124.0702 47.9907,123.3842 48.1637,122.6532 C48.0947,122.6302 48.0277,122.6062 47.9607,122.5812 C40.2827,119.8012 35.1947,113.6332 32.0467,108.2362 C34.8537,112.1112 38.3007,115.3452 42.0087,118.3182 L35.6307,107.6882 C37.9307,111.0432 46.5087,114.0552 46.5087,114.0552 C46.5087,114.0552 51.7747,114.9312 55.3007,118.0172 C55.3527,118.0632 55.4037,118.1082 55.4547,118.1542 C56.6107,119.2032 57.9347,120.1022 59.1927,120.8372" id="Fill-77" fill="#C8C9CA"></path>
                <path d="M67.5219,95.429 C67.5219,95.429 64.6339,82.967 62.2809,80.753 C59.9269,78.54 59.3939,78.088 59.3939,78.088 C59.3939,78.088 62.3189,84.197 62.6089,87.025 C62.8989,89.853 62.2209,91.42 62.2209,91.42 L56.7259,89.423 L55.8069,92.624 C55.7089,92.557 55.5909,92.518 55.4659,92.523 C55.4419,92.523 55.4179,92.526 55.3939,92.529 L54.5019,89.423 L49.0069,91.42 C49.0069,91.42 48.3309,89.853 48.6209,87.025 C48.9109,84.197 51.8339,78.088 51.8339,78.088 C51.8339,78.088 51.3019,78.54 48.9479,80.753 C46.5939,82.967 43.7079,95.429 43.7079,95.429 C42.3059,107.043 52.6209,112.002 55.0909,113.015 C55.1719,113.075 55.2659,113.114 55.3679,113.126 C55.5269,113.187 55.6149,113.218 55.6149,113.218 L55.6149,113.105 L55.6149,113.218 C55.6149,113.218 69.1119,108.609 67.5219,95.429" id="Fill-79" fill="#DBDCDC"></path>
                <path d="M67.6517,95.9622 C67.6517,95.9622 72.8277,92.6572 73.0737,86.2622 C73.0737,86.2622 75.4797,89.8022 74.1687,94.7892 C74.1687,94.7892 79.6617,89.9312 77.9397,75.4042 C77.9397,75.4042 82.2847,82.8192 80.9477,95.9622 C80.0497,104.7892 67.0807,114.9572 67.0807,114.9572 L66.1337,112.5792 L57.1977,114.1372 C57.1977,114.1372 68.9237,106.3992 67.6517,95.9622" id="Fill-81" fill="#C8C9CA"></path>
                <path d="M71.3842,110.2043 C71.3842,110.2043 75.3092,104.4863 73.9002,100.3053 C73.9002,100.3053 72.6752,103.8323 69.5392,105.1743 C69.5392,105.1743 66.0022,111.9763 60.8082,112.5413 C55.6142,113.1053 61.4852,114.3853 61.4852,114.3853 L66.8962,112.9103 L67.6522,114.7543 L71.3842,110.2043 Z" id="Fill-83" fill="#231815"></path>
                <path d="M43.683,95.9622 C43.683,95.9622 38.507,92.6572 38.261,86.2622 C38.261,86.2622 35.855,89.8022 37.166,94.7892 C37.166,94.7892 31.673,89.9312 33.395,75.4042 C33.395,75.4042 29.05,82.8192 30.387,95.9622 C31.286,104.7892 44.255,114.9572 44.255,114.9572 L45.201,112.5792 L54.137,114.1372 C54.137,114.1372 42.412,106.3992 43.683,95.9622" id="Fill-85" fill="#C8C9CA"></path>
                <path d="M82.3793,70.9231 C82.3793,70.9231 84.0313,61.6391 77.2923,60.0451 C77.2923,60.0451 81.9183,64.3401 79.0003,69.0311 L82.3793,70.9231 Z" id="Fill-87" fill="#231815"></path>
                <path d="M28.8666,70.9231 C28.8666,70.9231 27.2146,61.6391 33.9536,60.0451 C33.9536,60.0451 29.3266,64.3401 32.2446,69.0311 L28.8666,70.9231 Z" id="Fill-89" fill="#231815"></path>
                <path d="M53.181,105.8567 C53.181,105.8567 51.841,106.3207 52.005,107.4417 C52.005,107.4417 54.875,106.6217 55.257,107.9337 C55.64,109.2457 53.624,109.5187 53.624,109.5187 C53.624,109.5187 55.175,110.3937 56.979,109.5187 C58.783,108.6447 60.34,106.8537 58.045,105.6577 C55.749,104.4627 53.181,105.8567 53.181,105.8567" id="Fill-91" fill="#C8C9CA"></path>
                <path d="M64.2279,84.2576 C64.2279,84.2576 64.3919,81.2256 62.3009,79.4066 L67.8349,81.9936 L66.3189,79.8916 C66.3189,79.8916 71.0739,80.7406 72.1799,77.1826 C73.2879,73.6256 72.7129,71.9676 72.7129,71.9676 C72.7129,71.9676 74.2709,67.1156 70.9099,66.0646 C70.9099,66.0646 71.4839,67.5206 70.6639,69.0966 C69.8439,70.6736 61.2359,75.0806 60.0869,75.3636 C58.9399,75.6466 57.3819,74.3126 58.1619,71.6846 C58.1619,71.6846 55.6199,74.5546 57.9979,77.3446 L56.7259,78.1536 C56.7259,78.1536 60.8669,79.0826 64.2279,84.2576" id="Fill-93" fill="#231815"></path>
                <path d="M63.8383,103.4412 C63.8383,103.4412 64.5353,100.2882 60.5183,98.8732 C60.5183,98.8732 57.5183,98.6052 57.1363,98.1652 C56.7283,97.6952 55.9103,96.9612 55.6453,96.7252 L55.6453,96.6362 C55.6453,96.6362 55.6263,96.6512 55.5943,96.6802 C55.5703,96.6602 55.5583,96.6492 55.5583,96.6492 L55.5583,96.7122 C55.2923,96.9482 54.4753,97.6822 54.0663,98.1512 C53.6843,98.5912 50.6843,98.8592 50.6843,98.8592 C46.6673,100.2742 47.3633,103.4282 47.3633,103.4282 C47.3633,103.4282 47.8563,102.3772 49.7003,101.4062 C51.3883,100.5192 54.9603,100.7812 55.5583,100.8332 L55.5583,100.8542 C55.5583,100.8542 59.6573,100.4492 61.5023,101.4202 C63.3473,102.3902 63.8383,103.4412 63.8383,103.4412" id="Fill-95" fill="#231815"></path>
                <path d="M59.0834,106.6755 C58.7214,105.3645 57.2894,104.9515 55.6454,104.6685 L55.6454,104.6405 C55.6164,104.6455 55.5894,104.6505 55.5624,104.6545 C55.5614,104.6545 55.5594,104.6545 55.5584,104.6545 L55.5584,104.6555 C53.9134,104.9375 52.4814,105.3505 52.1194,106.6615 C53.3944,106.1395 54.5894,105.7875 55.5584,105.9215 L55.5584,105.9475 C56.5414,105.7805 57.7714,106.1375 59.0834,106.6755" id="Fill-97" fill="#231815"></path>
                <path d="M80.1742,87.7346 C80.5292,95.4316 76.2312,104.1416 67.5922,113.0256 L67.4882,109.9486 C64.9202,111.5946 63.1692,112.8346 61.2562,112.8606 C61.2562,112.8606 67.3172,108.8176 68.6742,103.2386 C69.6952,99.0366 69.7442,95.5006 66.0932,90.3516 C66.0932,90.3516 68.0542,98.8016 65.4372,104.6536 C62.9422,110.2356 56.2382,110.8886 55.6242,110.9376 L55.6242,110.9276 C55.6242,110.9276 48.3822,110.4936 45.7652,104.6406 C43.1492,98.7876 45.1102,90.3376 45.1102,90.3376 C41.4582,95.4866 41.5072,99.0236 42.5282,103.2256 C43.8852,108.8046 49.9462,112.8476 49.9462,112.8476 C48.0332,112.8206 46.2812,111.5806 43.7142,109.9346 L43.6112,113.0116 C34.9712,104.1286 30.6732,95.4186 31.0282,87.7216 C27.5052,99.4146 34.6632,109.4196 45.7662,118.4906 L46.3022,114.1236 C49.9142,116.7286 55.0492,118.6046 55.5782,118.7956 L55.6202,118.8096 L55.6242,118.8076 C56.1532,118.6186 61.2872,116.7426 64.9002,114.1376 L65.4372,118.5036 C76.5392,109.4326 83.6972,99.4276 80.1742,87.7346" id="Fill-99" fill="#231815"></path>
                <path d="M39.0219,77.1692 C40.1289,80.7272 44.8839,79.8782 44.8839,79.8782 L43.3679,81.9802 L48.9009,79.3932 C46.8109,81.2122 46.9749,84.2442 46.9749,84.2442 C50.3359,79.0692 54.4759,78.1392 54.4759,78.1392 L53.2059,77.3312 C55.5839,74.5412 53.0419,71.6712 53.0419,71.6712 C53.8209,74.2992 52.2629,75.6332 51.1149,75.3502 C49.9669,75.0672 41.3589,70.6602 40.5389,69.0842 C39.7189,67.5062 40.2929,66.0512 40.2929,66.0512 C36.9319,67.1022 38.4899,71.9542 38.4899,71.9542 C38.4899,71.9542 37.9159,73.6112 39.0219,77.1692" id="Fill-101" fill="#231815"></path>
                <path d="M50.725,88.6711 C49.003,89.5201 48.594,91.0971 48.594,91.0971 L49.885,92.1281 C49.885,92.1281 53.041,90.2281 54.189,93.5031 C54.189,93.5031 53.041,92.7751 51.689,93.2191 C52.75,94.3581 53.987,95.3111 55.558,95.9151 L55.558,95.9621 C55.579,95.9541 55.598,95.9461 55.619,95.9381 L55.645,95.9481 L55.645,95.9281 C57.215,95.3251 58.453,94.3711 59.514,93.2331 C58.162,92.7881 57.013,93.5161 57.013,93.5161 C58.162,90.2411 61.318,92.1411 61.318,92.1411 L62.609,91.1101 C62.609,91.1101 62.199,89.5341 60.477,88.6851 C58.922,87.9181 56.164,87.7771 55.645,87.7581 L55.645,87.7411 C55.645,87.7411 52.447,87.8221 50.725,88.6711" id="Fill-103" fill="#231815"></path>
                <path d="M70.9506,72.7219 L63.2036,76.9269 C63.2036,76.9269 66.2366,78.3019 68.5726,78.0589 C70.9096,77.8159 70.9916,73.8539 70.9506,72.7219" id="Fill-105" fill="#FFFFFF"></path>
                <path d="M40.2933,72.7219 L48.0403,76.9269 C48.0403,76.9269 45.0073,78.3019 42.6703,78.0589 C40.3343,77.8159 40.2523,73.8539 40.2933,72.7219" id="Fill-107" fill="#FFFFFF"></path>
                <path d="M40.0355,110.2043 C40.0355,110.2043 36.1095,104.4863 37.5185,100.3053 C37.5185,100.3053 38.7445,103.8323 41.8805,105.1743 C41.8805,105.1743 45.4175,111.9763 50.6105,112.5413 C55.8055,113.1053 49.9345,114.3853 49.9345,114.3853 L44.5235,112.9103 L43.7665,114.7543 L40.0355,110.2043 Z" id="Fill-109" fill="#231815"></path>
                <path d="M62.6088,115.5994 C62.6088,115.5994 55.5428,120.1034 52.1198,121.3334 C52.1198,121.3334 52.4218,118.7574 49.5998,116.1414 C46.7788,113.5244 54.1368,114.9564 54.1368,114.9564 L62.6088,115.5994 Z" id="Fill-111" fill="#231815"></path>
                <path d="M66.6263,59.2078 C66.6263,59.2078 65.5193,57.2398 62.1573,58.5928 C58.7963,59.9458 55.6403,62.7738 56.1323,63.3888 C56.6233,64.0038 61.0513,61.2568 62.8963,60.5198 C64.7403,59.7818 66.7493,60.3138 66.6263,59.2078" id="Fill-113" fill="#DBDCDC"></path>
                <path d="M68.9476,60.5461 C68.7956,60.4251 68.6286,60.3241 68.4536,60.2401 C68.2856,60.0751 68.0656,59.9461 67.8376,59.9081 C67.8326,59.9071 67.8286,59.9061 67.8236,59.9061 C67.7916,59.8821 67.7516,59.8651 67.7036,59.8591 C67.4426,59.8231 67.2306,60.0471 67.2056,60.2951 C67.1786,60.5441 67.2986,60.8061 67.4416,61.0031 C67.7316,61.4021 68.2266,61.6641 68.7256,61.6361 C69.0006,61.6221 69.2776,61.5311 69.3066,61.2161 C69.3336,60.9381 69.1536,60.7091 68.9476,60.5461" id="Fill-115" fill="#DBDCDC"></path>
                <mask id="mask-6" fill="white">
                    <use xlink:href="#path-5"></use>
                </mask>
                <g id="Clip-118"></g>
                <polygon id="Fill-117" fill="#231815" mask="url(#mask-6)" points="54.476 54.79 59.292 54.79 59.292 52.04 54.476 52.04"></polygon>
                <path d="M53.9232,69.0564 C53.8492,68.8274 53.7462,68.6044 53.6232,68.3894 C53.5622,68.1094 53.4242,67.8204 53.2142,67.6024 C53.2102,67.5984 53.2062,67.5944 53.2012,67.5904 C53.1852,67.5424 53.1542,67.4954 53.1112,67.4524 C52.8642,67.2114 52.4922,67.2394 52.2962,67.4364 C52.0992,67.6354 52.0412,67.9624 52.0552,68.2514 C52.0802,68.8364 52.4132,69.4644 52.9462,69.8404 C53.2392,70.0474 53.5882,70.1904 53.8352,69.9354 C54.0522,69.7124 54.0242,69.3654 53.9232,69.0564" id="Fill-119" fill="#DBDCDC" mask="url(#mask-6)"></path>
                <path d="M57.1791,69.0564 C57.2541,68.8274 57.3571,68.6044 57.4801,68.3894 C57.5401,68.1094 57.6791,67.8204 57.8891,67.6024 L57.9011,67.5904 C57.9181,67.5424 57.9481,67.4954 57.9921,67.4524 C58.2381,67.2114 58.6111,67.2394 58.8061,67.4364 C59.0041,67.6354 59.0611,67.9624 59.0481,68.2514 C59.0221,68.8364 58.6901,69.4644 58.1571,69.8404 C57.8631,70.0474 57.5151,70.1904 57.2681,69.9354 C57.0501,69.7124 57.0791,69.3654 57.1791,69.0564" id="Fill-120" fill="#DBDCDC" mask="url(#mask-6)"></path>
                <path d="M54.6205,72.031 C54.8195,71.989 55.0355,71.959 55.2625,71.94 C55.4835,71.877 55.7685,71.84 56.0585,71.853 C56.0645,71.853 56.0695,71.853 56.0755,71.854 C56.1185,71.845 56.1705,71.843 56.2295,71.846 C56.5605,71.865 56.8135,72.017 56.8315,72.153 C56.8485,72.29 56.6825,72.413 56.4885,72.498 C56.0995,72.669 55.4585,72.736 54.8325,72.648 C54.4865,72.6 54.1425,72.51 54.1255,72.337 C54.1095,72.185 54.3505,72.088 54.6205,72.031" id="Fill-121" fill="#DBDCDC" mask="url(#mask-6)"></path>
                <path d="M55.3441,71.2302 C55.3441,71.2302 56.7551,70.8772 56.3511,68.7062 C55.9461,66.5352 54.5691,64.2622 54.1081,64.4582 C53.6471,64.6542 54.7971,67.6582 55.0161,68.8492 C55.2351,70.0402 54.6181,71.1362 55.3441,71.2302" id="Fill-122" fill="#DBDCDC" mask="url(#mask-6)"></path>
            </g>
        </g>
    </g>
</svg>