<?xml version="1.0" encoding="utf-8"?>
<!-- Generator: Adobe Illustrator 22.0.1, SVG Export Plug-In . SVG Version: 6.00 Build 0)  -->
<svg version="1.1" xmlns="http://www.w3.org/2000/svg" xmlns:xlink="http://www.w3.org/1999/xlink" x="0px" y="0px"
	 viewBox="0 0 1024 1024" style="enable-background:new 0 0 1024 1024;" xml:space="preserve">
<style type="text/css">
	.st0{display:none;}
	.st1{display:inline;}
	.st2{fill:#FFB705;}
	.st3{filter:url(#Adobe_OpacityMaskFilter);}
	.st4{fill:#FFFFFF;}
	.st5{mask:url(#mask-2_2_);}
	.st6{fill:#13AE67;}
	.st7{opacity:0.6;fill:#5BC3E7;enable-background:new    ;}
	.st8{opacity:0.35;fill:#5BC3E7;enable-background:new    ;}
	.st9{fill:#B28247;}
	.st10{fill:#7F4F21;}
	.st11{fill:#40220F;}
	.st12{fill:#956134;}
	.st13{opacity:0.5;fill:#7F4F21;enable-background:new    ;}
	.st14{opacity:0.5;}
	.st15{opacity:0.8;fill:#7F4F21;enable-background:new    ;}
	.st16{fill:#C79F62;}
	.st17{fill:none;stroke:#231C1D;stroke-width:1.18;stroke-linecap:round;stroke-linejoin:round;}
	.st18{fill:#F79E8C;}
	.st19{fill:#FBCFC6;}
	.st20{fill:#CF2500;}
	.st21{fill:#EF3D19;}
	.st22{fill:#F76549;}
</style>
<g id="图层_2" class="st0">
	<g id="Page-1_1_" class="st1">
		<path id="Mask-Copy-5" class="st2" d="M22,304.8C56.7,137.2,163.3,43.9,329.5,15.7C452.4-5.2,575.3-5.4,698,16.2
			c171.2,30.3,274.1,129,306.9,299.2c25.3,131.5,25.7,264.4-0.4,395.7c-35,166.4-144.4,269.2-310,297.2
			c-122.9,20.8-245.8,21.1-368.5-0.6c-171.2-30.3-274.5-134-307.3-304.1C-8,571.3-5.4,437.6,22,304.8z"/>
	</g>
</g>
<g id="图层_1">
	<g id="Page-1">
		<g id="Group-2-Copy-_x2B_-Group-3-Copy-2-Mask-Copy" transform="translate(-5.000000, -1.000000)">
			<g id="Mask">
			</g>
			<defs>
				<filter id="Adobe_OpacityMaskFilter" filterUnits="userSpaceOnUse" x="57.1" y="-310.2" width="1565.2" height="2114.7">
					<feColorMatrix  type="matrix" values="1 0 0 0 0  0 1 0 0 0  0 0 1 0 0  0 0 0 1 0"/>
				</filter>
			</defs>
			<mask maskUnits="userSpaceOnUse" x="57.1" y="-310.2" width="1565.2" height="2114.7" id="mask-2_2_">
				<g class="st3">
					<path id="path-1_2_" class="st4" d="M26.4,305.1C61,137.6,167.6,44.2,333.9,16C456.8-4.8,579.7-5.1,702.4,16.6
						c171.2,30.3,274.1,129,306.9,299.2c25.3,131.5,25.7,264.4-0.4,395.7c-35,166.4-144.4,269.2-310,297.2
						c-122.9,20.8-245.8,21.1-368.5-0.6C159.1,977.9,55.8,874.2,23,704C-3.6,571.7-1.1,438,26.4,305.1z"/>
				</g>
			</mask>
			<g id="Group-3-Copy-2" class="st5">
				
					<g transform="translate(59.556933, 71.709776) rotate(-30.000000) translate(-59.556933, -71.709776) translate(-17.443067, -33.290224)">
					<path id="Shape" class="st6" d="M1008.2,1557.8c0-156.2-166.1-282.8-371.1-282.8c-50.3-0.1-100.4,7.8-148.3,23.5
						c-74.8-42.2-176.1-68.2-287.6-68.2c-104.2,0-199.4,22.7-272.7,60.2c-55.6-35.9-120.2-54.7-186.1-54.1
						c-165.3,0-299.1,111.5-299.1,248.9c0,83,48.8,156.3,123.8,201.6c0,1.1,0,2.2,0,3.4c0,125.3,117.7,226.9,263,226.9
						c45.7,0.2,90.8-10.3,131.9-30.6c69.9,84.8,197.7,141.7,343.9,141.7c115,0,218.5-35.2,291.5-91.5c29,4.2,58.4,2.9,86.9-3.8
						c79.1-18.7,138.3-74.3,157.8-139.3C942.1,1743,1008.2,1656.3,1008.2,1557.8z"/>
					<path id="Shape_1_" class="st7" d="M-146,1347.3c0,0,82.2-115.1,347.3-117c265.1-1.9,377.4,136,377.4,136
						S249,1117.4-146,1347.3z"/>
					<path id="Shape_2_" class="st8" d="M841.4,1793.8c99.7-50.8,166.9-137.8,166.9-236.1c0-156.2-166.1-282.8-371.1-282.8
						c-46.7-0.1-93.1,6.7-137.8,20.3c1.3,0,284.5-53.8,405.8,109.1c121.3,162.9,49,264.5-57.3,355
						C846.9,1771,844.8,1782.6,841.4,1793.8z"/>
					<path id="Shape_3_" class="st8" d="M626,1428.8c-1.2,33.7-182,122-402.9,114.2c-220.9-7.8-353-126.7-344.8-159.4
						c22.3-88.4,156.9,57,377.8,64.9S627.1,1395.1,626,1428.8z"/>
					<path id="Shape_4_" class="st9" d="M579,1227.9c0,0,78.1-174,230.6-51.1c152.5,122.9-48.3,228.9-26,285.7
						c22.3,56.8,83.7,36,83.7,36s-61.2,105.9-141.3,64.3c-80.1-41.6-67-134.3-40.8-219.5c26.2-85.1-26.1-109.7-81.6-81.3L579,1227.9
						z"/>
					<path id="Shape_5_" class="st10" d="M783.5,1462.5c-22.3-56.8,178.6-162.7,26-285.7S579,1227.9,579,1227.9l16.1,22.7
						c0,0,63.8-56.7,112.2-34c48.4,22.7,44.6,83,11.1,162.7c-33.4,79.7,3.7,242,148.7,119.2C867.2,1498.4,805.9,1519.3,783.5,1462.5
						z"/>
					<path id="Shape_6_" class="st11" d="M783.5,1462.5c-22.3-56.8,178.6-162.7,26-285.7S579,1227.9,579,1227.9l6.8,9.8
						c0,0,74.8-77.9,134.3-64.7c59.5,13.3,87.4,68.1,44.7,185.4c-42.8,117.3-18.6,193,102,140
						C867.2,1498.4,805.9,1519.3,783.5,1462.5z"/>
					<path id="Shape_7_" class="st12" d="M238.1,555.3c-77.6-40.7-160.7-69.4-246.5-85.1C-142.9,447.4-252,588.8-202.7,730.1
						S-21.8,930.6,76.7,949c0,0-85.2,27.7-71.7,132.2c13.5,104.5-62.7,246.3-103.1,269.1s71.1,136.8,147.6,77.5
						c45.1-35,72.9-88.3,76.2-145.9l89.7,41c0,0-13.6,43.4-58.3,31.9c-44.7-11.4-35.9,95.8-9,136.8c26.9,41,147.9,36.5,206.2,9.1
						c58.3-27.4,255.5,31.9,273.5-228.2c17.9-260.1-165.9-182.5-183.5-323.8c-17.7-141.3,31.4-205.2-31.3-255.4
						c0,0,13.6-47.1-58.3-72.9C354.3,620.7,300.4,591.7,238.1,555.3z"/>
					<path id="Shape_8_" class="st13" d="M34.2,1020.7c28.4-74.9,126.4-83.7,126.4-83.7c-176.7,17.9-295.7-95.8-295.7-95.8
						C-74,904.9,9,936.6,76.3,949c0,0-85.2,27.7-71.7,132.2c5.4,41.5-3.5,89.3-18.7,132.9C22.2,1135.4,6,1095.1,34.2,1020.7z"/>
					<g id="Group" transform="translate(47.793103, 130.321543)" class="st14">
						<path id="Shape_9_" class="st10" d="M1.8,1297.5c45.1-35,72.9-88.3,76.2-145.9c0,0,2.8-41.1-9.1-63.9
							c0,0-25.5,237-186.2,200.5C-84.8,1313.1-36.9,1327.6,1.8,1297.5z"/>
					</g>
					<path id="Shape_10_" class="st13" d="M149.7,1461.2c-21.5-118.6,68-60.8,91.2-183.4c-9.6,21.6-21.2,42.2-34.7,61.5l-0.8,0.9
						c-3.6,5.3-8.6,9.4-14.4,11.8c-10.6,5.2-22.7,6.1-34,2.8c-44.9-11.3-35.9,95.8-9,136.8c14.1,21.6,54.4,30.5,97.7,30.1
						C245.8,1521.8,161,1522.6,149.7,1461.2z"/>
					<path id="Shape_11_" class="st15" d="M426,1489.6c80.4-7.5,188.8-27.2,201.9-216.8c17.9-260-165.9-182.5-183.5-323.8
						c-16.3-128.7,22.8-193.1-17.4-241.5c2.7,5.9,21.6,51.1-0.3,121.8c-23.5,76.1-42.4,164.2,68,229.8
						C605,1124.6,682.4,1420.2,426,1489.6z"/>
					<path id="Shape_12_" class="st16" d="M-66.3,541.2c0,8.8-7,16-15.7,16s-15.7-7.2-15.7-16s7-16,15.7-16S-66.3,532.4-66.3,541.2z
						"/>
					<path id="Shape_13_" class="st10" d="M526.9,921c0,0,15,138.3-85.8,178.5c-100.8,40.2-116,113.8-71.2,118.9
						s51.4-52.1,51.4-52.1s34,63.6-32.7,97.1s-126.8-63.3-82.5-134.5c44.4-71.2,88.4-90.4,106.9-124.5
						C431.4,970.4,467,974.4,526.9,921z"/>
					<path id="Shape_14_" class="st9" d="M424.1,1058.7c65.2-34.6,79.1-108.1,79.1-108.1c1.5-4,2.5-8.1,2.9-12.3
						c-47.6,35.7-77.1,36.6-93.1,66.3c-18.2,33.8-62.5,53-106.9,124.5c-16.2,26-19.7,58.1-9.6,87.1
						C298.3,1127.1,358.8,1093.9,424.1,1058.7z"/>
					<path id="Shape_15_" class="st11" d="M400.4,1209.3c-8.5,7.3-19.6,10.5-30.5,8.9c-44.8-4.9-29.6-78.1,71.2-118.5
						c0,0-83.9,26.4-106.1,62.2C312.8,1197.7,345.9,1259.8,400.4,1209.3z"/>
					<path id="Shape_16_" class="st9" d="M324.7,1256.9c18.1,14.9,43.2,17.4,63.8,6.4c66.7-33.5,32.7-97.1,32.7-97.1
						S426.7,1279.6,324.7,1256.9z"/>
					<path id="Shape_17_" class="st10" d="M449.4,667.5c0,0,148.5,110.6,88.4,234.1c-60.2,123.4-229.4,117-215.1,194.8l-16.6,32.4
						c0,0-66.5-89.2,8.7-138.9s208.8-132.3,100.1-284.3C414.8,705.6,418,655.9,449.4,667.5z"/>
					<path id="Shape_18_" class="st11" d="M414.8,705.6c104.5,146.1-14.8,228.2-90.9,278.3c60.1-38,131.8-50.4,173.8-138.3
						c44.2-92.4-48.3-178-48.3-178C418,655.9,414.8,705.6,414.8,705.6z"/>
					<path id="Shape_19_" class="st9" d="M424.3,674.9c-5.4,9.4-8.7,19.9-9.4,30.7c79.3,110.6,29.6,184.9-32.2,236.1
						C561.3,828.2,424.3,674.9,424.3,674.9z"/>
					<path id="Shape_20_" class="st11" d="M538.1,901.6c15-30.4,18.2-65.4,9.1-98.1c0,0.8-2.6,133-102.5,163.5s-117,13.8-163.9,69.1
						c0,0,58.7-36.4,107.4-13.1C438.7,998.1,505,969.4,538.1,901.6z"/>
					<path id="Shape_21_" class="st11" d="M349.2,1045.5c-25.8-0.2-50.4,10.9-67.6,30.5c4.8,19.1,13.1,37.1,24.4,53.2l16.9-32.4
						C318.9,1074.4,329.8,1059,349.2,1045.5z"/>
					<path id="Shape_22_" class="st17" d="M140.5,666.3c0,0,25.4-41.1,48.7-16.5c12.4,13.1,0,39.8,0,39.8"/>
					<path id="Shape_23_" class="st10" d="M325.5,656.1c0,0,56.3-140.8,205.1-82c0,0-57.8,137.6-132.2,139.7
						C324,716,305.3,678.2,325.5,656.1z"/>
					<path id="Shape_24_" class="st9" d="M371.7,641.8c0,0,57-45.3,101.5-29C473.2,612.8,426.8,688.9,371.7,641.8z"/>
					
						<ellipse id="Oval" transform="matrix(-1 2.341059e-06 -2.341059e-06 -1 339.4497 1349.8529)" class="st11" cx="169.7" cy="674.9" rx="48.1" ry="48.9"/>
					
						<ellipse id="Oval_1_" transform="matrix(-1 2.341063e-06 -2.341063e-06 -1 339.4497 1349.8529)" class="st4" cx="169.7" cy="674.9" rx="41.1" ry="41.8"/>
					<path id="Shape_25_" class="st18" d="M479-62.1c8.9-20.2,0-44-19.8-53.1l-250.8,502l60,27.7C268.4,414.5,470-41.8,479-62.1z"/>
					<path id="Shape_26_" class="st19" d="M406.9-95c-9,20.2-210.7,476.3-210.7,476.3l36,16.5l226.7-513
						C439.1-124.1,415.9-115.1,406.9-95z"/>
					<path id="Shape_27_" class="st20" d="M295.9,401l20.4-46.7l-36-16.5L127.5,530.8l202.9,61.3C359.1,527.3,345.4,451.2,295.9,401
						z"/>
					<path id="Shape_28_" class="st21" d="M259.9,384.5l20.4-46.6l-72.1-33l-20.4,46.7C118.2,347.2,53.1,387.2,24.4,452l103.3,78.8
						l166.9,44.5C323.1,510.5,309.3,434.6,259.9,384.5z"/>
					<path id="Shape_29_" class="st21" d="M336.6,594.8l-36-16.5L284.4,615l36,16.5c6.4,2.9,13.9,2.2,19.6-2
						c5.7-4.2,8.8-11.2,8.1-18.3C347.4,603.9,343,597.7,336.6,594.8z"/>
					<path id="Shape_30_" class="st22" d="M310.5,604.9c2.2-4.9,2.3-10.4,0.5-15.4c-1.9-5-5.6-9-10.4-11.2l-282.2-129
						c-6.4-2.9-13.9-2.2-19.6,2c-5.7,4.2-8.8,11.2-8.1,18.3c0.7,7.1,5.1,13.3,11.6,16.3l282.2,129C294.3,619.5,306,615,310.5,604.9z
						"/>
				</g>
			</g>
		</g>
	</g>
</g>
</svg>
