<?xml version="1.0" encoding="utf-8"?>
<!-- Generator: Adobe Illustrator 22.0.1, SVG Export Plug-In . SVG Version: 6.00 Build 0)  -->
<svg version="1.1" xmlns="http://www.w3.org/2000/svg" xmlns:xlink="http://www.w3.org/1999/xlink" x="0px" y="0px"
	 viewBox="0 0 1024 1024" style="enable-background:new 0 0 1024 1024;" xml:space="preserve">
<style type="text/css">
	.st0{display:none;}
	.st1{display:inline;}
	.st2{fill:#FFB705;}
	.st3{filter:url(#Adobe_OpacityMaskFilter);}
	.st4{fill:#FFFFFF;}
	.st5{mask:url(#mask-2_2_);}
	.st6{fill:#13AE67;}
	.st7{opacity:0.6;fill:#5BC3E7;enable-background:new    ;}
	.st8{opacity:0.35;fill:#5BC3E7;enable-background:new    ;}
	.st9{fill:#B28247;}
	.st10{fill:#7F4F21;}
	.st11{fill:#40220F;}
	.st12{fill:#956134;}
	.st13{opacity:0.5;fill:#7F4F21;enable-background:new    ;}
	.st14{opacity:0.5;}
	.st15{opacity:0.8;fill:#7F4F21;enable-background:new    ;}
	.st16{fill:#C79F62;}
	.st17{fill:none;stroke:#231C1D;stroke-width:1.18;stroke-linecap:round;stroke-linejoin:round;}
	.st18{fill:#F79E8C;}
	.st19{fill:#FBCFC6;}
	.st20{fill:#CF2500;}
	.st21{fill:#EF3D19;}
	.st22{fill:#F76549;}
	.st23{filter:url(#Adobe_OpacityMaskFilter_1_);}
	.st24{mask:url(#mask-2_1_);}
	.st25{fill:#BBE2F1;}
	.st26{fill:#F4B5C9;}
	.st27{fill:#EB7FAE;}
	.st28{fill:#E64893;}
	.st29{opacity:0.5;fill:#DBDCDC;enable-background:new    ;}
	.st30{fill:#9CD5F4;}
	.st31{opacity:0.4;fill:#9CD5F4;enable-background:new    ;}
	.st32{fill:#009BDF;}
	.st33{opacity:0.4;fill:#009BDF;enable-background:new    ;}
	.st34{fill:#FAE5EE;}
	.st35{fill:#231C1D;}
</style>
<g id="图层_2" class="st0">
	<g id="Page-1_1_" class="st1">
		<path id="Mask-Copy-5" class="st2" d="M22,304.8C56.7,137.2,163.3,43.9,329.5,15.7C452.4-5.2,575.3-5.4,698,16.2
			c171.2,30.3,274.1,129,306.9,299.2c25.3,131.5,25.7,264.4-0.4,395.7c-35,166.4-144.4,269.2-310,297.2
			c-122.9,20.8-245.8,21.1-368.5-0.6c-171.2-30.3-274.5-134-307.3-304.1C-8,571.3-5.4,437.6,22,304.8z"/>
	</g>
</g>
<g id="图层_1" class="st0">
	<g id="Page-1" class="st1">
		<g id="Group-2-Copy-_x2B_-Group-3-Copy-2-Mask-Copy" transform="translate(-5.000000, -1.000000)">
			<g id="Mask">
			</g>
			<defs>
				<filter id="Adobe_OpacityMaskFilter" filterUnits="userSpaceOnUse" x="57.1" y="-310.2" width="1565.2" height="2114.7">
					<feColorMatrix  type="matrix" values="1 0 0 0 0  0 1 0 0 0  0 0 1 0 0  0 0 0 1 0"/>
				</filter>
			</defs>
			<mask maskUnits="userSpaceOnUse" x="57.1" y="-310.2" width="1565.2" height="2114.7" id="mask-2_2_">
				<g class="st3">
					<path id="path-1_2_" class="st4" d="M26.4,305.1C61,137.6,167.6,44.2,333.9,16C456.8-4.8,579.7-5.1,702.4,16.6
						c171.2,30.3,274.1,129,306.9,299.2c25.3,131.5,25.7,264.4-0.4,395.7c-35,166.4-144.4,269.2-310,297.2
						c-122.9,20.8-245.8,21.1-368.5-0.6C159.1,977.9,55.8,874.2,23,704C-3.6,571.7-1.1,438,26.4,305.1z"/>
				</g>
			</mask>
			<g id="Group-3-Copy-2" class="st5">
				
					<g transform="translate(59.556933, 71.709776) rotate(-30.000000) translate(-59.556933, -71.709776) translate(-17.443067, -33.290224)">
					<path id="Shape" class="st6" d="M1008.2,1557.8c0-156.2-166.1-282.8-371.1-282.8c-50.3-0.1-100.4,7.8-148.3,23.5
						c-74.8-42.2-176.1-68.2-287.6-68.2c-104.2,0-199.4,22.7-272.7,60.2c-55.6-35.9-120.2-54.7-186.1-54.1
						c-165.3,0-299.1,111.5-299.1,248.9c0,83,48.8,156.3,123.8,201.6c0,1.1,0,2.2,0,3.4c0,125.3,117.7,226.9,263,226.9
						c45.7,0.2,90.8-10.3,131.9-30.6c69.9,84.8,197.7,141.7,343.9,141.7c115,0,218.5-35.2,291.5-91.5c29,4.2,58.4,2.9,86.9-3.8
						c79.1-18.7,138.3-74.3,157.8-139.3C942.1,1743,1008.2,1656.3,1008.2,1557.8z"/>
					<path id="Shape_1_" class="st7" d="M-146,1347.3c0,0,82.2-115.1,347.3-117c265.1-1.9,377.4,136,377.4,136
						S249,1117.4-146,1347.3z"/>
					<path id="Shape_2_" class="st8" d="M841.4,1793.8c99.7-50.8,166.9-137.8,166.9-236.1c0-156.2-166.1-282.8-371.1-282.8
						c-46.7-0.1-93.1,6.7-137.8,20.3c1.3,0,284.5-53.8,405.8,109.1c121.3,162.9,49,264.5-57.3,355
						C846.9,1771,844.8,1782.6,841.4,1793.8z"/>
					<path id="Shape_3_" class="st8" d="M626,1428.8c-1.2,33.7-182,122-402.9,114.2c-220.9-7.8-353-126.7-344.8-159.4
						c22.3-88.4,156.9,57,377.8,64.9S627.1,1395.1,626,1428.8z"/>
					<path id="Shape_4_" class="st9" d="M579,1227.9c0,0,78.1-174,230.6-51.1c152.5,122.9-48.3,228.9-26,285.7
						c22.3,56.8,83.7,36,83.7,36s-61.2,105.9-141.3,64.3c-80.1-41.6-67-134.3-40.8-219.5c26.2-85.1-26.1-109.7-81.6-81.3L579,1227.9
						z"/>
					<path id="Shape_5_" class="st10" d="M783.5,1462.5c-22.3-56.8,178.6-162.7,26-285.7S579,1227.9,579,1227.9l16.1,22.7
						c0,0,63.8-56.7,112.2-34c48.4,22.7,44.6,83,11.1,162.7c-33.4,79.7,3.7,242,148.7,119.2C867.2,1498.4,805.9,1519.3,783.5,1462.5
						z"/>
					<path id="Shape_6_" class="st11" d="M783.5,1462.5c-22.3-56.8,178.6-162.7,26-285.7S579,1227.9,579,1227.9l6.8,9.8
						c0,0,74.8-77.9,134.3-64.7c59.5,13.3,87.4,68.1,44.7,185.4c-42.8,117.3-18.6,193,102,140
						C867.2,1498.4,805.9,1519.3,783.5,1462.5z"/>
					<path id="Shape_7_" class="st12" d="M238.1,555.3c-77.6-40.7-160.7-69.4-246.5-85.1C-142.9,447.4-252,588.8-202.7,730.1
						S-21.8,930.6,76.7,949c0,0-85.2,27.7-71.7,132.2c13.5,104.5-62.7,246.3-103.1,269.1s71.1,136.8,147.6,77.5
						c45.1-35,72.9-88.3,76.2-145.9l89.7,41c0,0-13.6,43.4-58.3,31.9c-44.7-11.4-35.9,95.8-9,136.8c26.9,41,147.9,36.5,206.2,9.1
						c58.3-27.4,255.5,31.9,273.5-228.2c17.9-260.1-165.9-182.5-183.5-323.8c-17.7-141.3,31.4-205.2-31.3-255.4
						c0,0,13.6-47.1-58.3-72.9C354.3,620.7,300.4,591.7,238.1,555.3z"/>
					<path id="Shape_8_" class="st13" d="M34.2,1020.7c28.4-74.9,126.4-83.7,126.4-83.7c-176.7,17.9-295.7-95.8-295.7-95.8
						C-74,904.9,9,936.6,76.3,949c0,0-85.2,27.7-71.7,132.2c5.4,41.5-3.5,89.3-18.7,132.9C22.2,1135.4,6,1095.1,34.2,1020.7z"/>
					<g id="Group" transform="translate(47.793103, 130.321543)" class="st14">
						<path id="Shape_9_" class="st10" d="M1.8,1297.5c45.1-35,72.9-88.3,76.2-145.9c0,0,2.8-41.1-9.1-63.9
							c0,0-25.5,237-186.2,200.5C-84.8,1313.1-36.9,1327.6,1.8,1297.5z"/>
					</g>
					<path id="Shape_10_" class="st13" d="M149.7,1461.2c-21.5-118.6,68-60.8,91.2-183.4c-9.6,21.6-21.2,42.2-34.7,61.5l-0.8,0.9
						c-3.6,5.3-8.6,9.4-14.4,11.8c-10.6,5.2-22.7,6.1-34,2.8c-44.9-11.3-35.9,95.8-9,136.8c14.1,21.6,54.4,30.5,97.7,30.1
						C245.8,1521.8,161,1522.6,149.7,1461.2z"/>
					<path id="Shape_11_" class="st15" d="M426,1489.6c80.4-7.5,188.8-27.2,201.9-216.8c17.9-260-165.9-182.5-183.5-323.8
						c-16.3-128.7,22.8-193.1-17.4-241.5c2.7,5.9,21.6,51.1-0.3,121.8c-23.5,76.1-42.4,164.2,68,229.8
						C605,1124.6,682.4,1420.2,426,1489.6z"/>
					<path id="Shape_12_" class="st16" d="M-66.3,541.2c0,8.8-7,16-15.7,16s-15.7-7.2-15.7-16s7-16,15.7-16S-66.3,532.4-66.3,541.2z
						"/>
					<path id="Shape_13_" class="st10" d="M526.9,921c0,0,15,138.3-85.8,178.5c-100.8,40.2-116,113.8-71.2,118.9
						s51.4-52.1,51.4-52.1s34,63.6-32.7,97.1s-126.8-63.3-82.5-134.5c44.4-71.2,88.4-90.4,106.9-124.5
						C431.4,970.4,467,974.4,526.9,921z"/>
					<path id="Shape_14_" class="st9" d="M424.1,1058.7c65.2-34.6,79.1-108.1,79.1-108.1c1.5-4,2.5-8.1,2.9-12.3
						c-47.6,35.7-77.1,36.6-93.1,66.3c-18.2,33.8-62.5,53-106.9,124.5c-16.2,26-19.7,58.1-9.6,87.1
						C298.3,1127.1,358.8,1093.9,424.1,1058.7z"/>
					<path id="Shape_15_" class="st11" d="M400.4,1209.3c-8.5,7.3-19.6,10.5-30.5,8.9c-44.8-4.9-29.6-78.1,71.2-118.5
						c0,0-83.9,26.4-106.1,62.2C312.8,1197.7,345.9,1259.8,400.4,1209.3z"/>
					<path id="Shape_16_" class="st9" d="M324.7,1256.9c18.1,14.9,43.2,17.4,63.8,6.4c66.7-33.5,32.7-97.1,32.7-97.1
						S426.7,1279.6,324.7,1256.9z"/>
					<path id="Shape_17_" class="st10" d="M449.4,667.5c0,0,148.5,110.6,88.4,234.1c-60.2,123.4-229.4,117-215.1,194.8l-16.6,32.4
						c0,0-66.5-89.2,8.7-138.9s208.8-132.3,100.1-284.3C414.8,705.6,418,655.9,449.4,667.5z"/>
					<path id="Shape_18_" class="st11" d="M414.8,705.6c104.5,146.1-14.8,228.2-90.9,278.3c60.1-38,131.8-50.4,173.8-138.3
						c44.2-92.4-48.3-178-48.3-178C418,655.9,414.8,705.6,414.8,705.6z"/>
					<path id="Shape_19_" class="st9" d="M424.3,674.9c-5.4,9.4-8.7,19.9-9.4,30.7c79.3,110.6,29.6,184.9-32.2,236.1
						C561.3,828.2,424.3,674.9,424.3,674.9z"/>
					<path id="Shape_20_" class="st11" d="M538.1,901.6c15-30.4,18.2-65.4,9.1-98.1c0,0.8-2.6,133-102.5,163.5s-117,13.8-163.9,69.1
						c0,0,58.7-36.4,107.4-13.1C438.7,998.1,505,969.4,538.1,901.6z"/>
					<path id="Shape_21_" class="st11" d="M349.2,1045.5c-25.8-0.2-50.4,10.9-67.6,30.5c4.8,19.1,13.1,37.1,24.4,53.2l16.9-32.4
						C318.9,1074.4,329.8,1059,349.2,1045.5z"/>
					<path id="Shape_22_" class="st17" d="M140.5,666.3c0,0,25.4-41.1,48.7-16.5c12.4,13.1,0,39.8,0,39.8"/>
					<path id="Shape_23_" class="st10" d="M325.5,656.1c0,0,56.3-140.8,205.1-82c0,0-57.8,137.6-132.2,139.7
						C324,716,305.3,678.2,325.5,656.1z"/>
					<path id="Shape_24_" class="st9" d="M371.7,641.8c0,0,57-45.3,101.5-29C473.2,612.8,426.8,688.9,371.7,641.8z"/>
					
						<ellipse id="Oval" transform="matrix(-1 2.341059e-06 -2.341059e-06 -1 339.4497 1349.8529)" class="st11" cx="169.7" cy="674.9" rx="48.1" ry="48.9"/>
					
						<ellipse id="Oval_1_" transform="matrix(-1 2.341063e-06 -2.341063e-06 -1 339.4497 1349.8529)" class="st4" cx="169.7" cy="674.9" rx="41.1" ry="41.8"/>
					<path id="Shape_25_" class="st18" d="M479-62.1c8.9-20.2,0-44-19.8-53.1l-250.8,502l60,27.7C268.4,414.5,470-41.8,479-62.1z"/>
					<path id="Shape_26_" class="st19" d="M406.9-95c-9,20.2-210.7,476.3-210.7,476.3l36,16.5l226.7-513
						C439.1-124.1,415.9-115.1,406.9-95z"/>
					<path id="Shape_27_" class="st20" d="M295.9,401l20.4-46.7l-36-16.5L127.5,530.8l202.9,61.3C359.1,527.3,345.4,451.2,295.9,401
						z"/>
					<path id="Shape_28_" class="st21" d="M259.9,384.5l20.4-46.6l-72.1-33l-20.4,46.7C118.2,347.2,53.1,387.2,24.4,452l103.3,78.8
						l166.9,44.5C323.1,510.5,309.3,434.6,259.9,384.5z"/>
					<path id="Shape_29_" class="st21" d="M336.6,594.8l-36-16.5L284.4,615l36,16.5c6.4,2.9,13.9,2.2,19.6-2
						c5.7-4.2,8.8-11.2,8.1-18.3C347.4,603.9,343,597.7,336.6,594.8z"/>
					<path id="Shape_30_" class="st22" d="M310.5,604.9c2.2-4.9,2.3-10.4,0.5-15.4c-1.9-5-5.6-9-10.4-11.2l-282.2-129
						c-6.4-2.9-13.9-2.2-19.6,2c-5.7,4.2-8.8,11.2-8.1,18.3c0.7,7.1,5.1,13.3,11.6,16.3l282.2,129C294.3,619.5,306,615,310.5,604.9z
						"/>
				</g>
			</g>
		</g>
	</g>
</g>
<g id="图层_3">
	<g id="Page-1_2_">
		<g id="Group-2-Copy-_x2B_-Group-3-Copy-2-Mask" transform="translate(-2.000000, -7.000000)">
			<g id="Mask_1_">
			</g>
			<defs>
				<filter id="Adobe_OpacityMaskFilter_1_" filterUnits="userSpaceOnUse" x="28.1" y="85.7" width="1565.8" height="1747.9">
					<feColorMatrix  type="matrix" values="1 0 0 0 0  0 1 0 0 0  0 0 1 0 0  0 0 0 1 0"/>
				</filter>
			</defs>
			<mask maskUnits="userSpaceOnUse" x="28.1" y="85.7" width="1565.8" height="1747.9" id="mask-2_1_">
				<g class="st23">
					<path id="path-1_1_" class="st4" d="M23.9,311.6C58.5,144,165.1,50.6,331.3,22.4C454.2,1.6,577.2,1.3,699.9,23
						c171.2,30.3,274.1,129,306.9,299.2c25.3,131.5,25.7,264.3-0.4,395.7c-35,166.4-144.4,269.2-310,297.2
						c-122.9,20.8-245.8,21.1-368.5-0.6c-171.2-30.3-274.5-134-307.3-304.1C-6.2,578.1-3.6,444.4,23.9,311.6z"/>
				</g>
			</mask>
			<g id="Group-2-Copy" class="st24">
				
					<g transform="translate(67.465045, 85.759274) rotate(-30.000000) translate(-67.465045, -85.759274) translate(-13.034955, -3.740726)">
					<path id="Shape_68_" class="st25" d="M973.4,1536.7c0-155.7-166.6-281.9-371.9-281.9c-50.6-0.2-100.8,7.7-148.9,23.5
						c-74.9-42.1-176.6-67.9-288.2-67.9c-104.4,0-199.9,22.7-273.3,60c-55.8-35.8-120.6-54.5-186.6-54
						c-165.6,0-299.8,111.1-299.8,248.1c0,82.7,48.9,155.8,124,200.9c0,1.1,0,2.2,0,3.3c0,124.9,118,226.2,263.5,226.2
						c45.8,0.2,91-10.3,132.2-30.5c70,84.6,198.2,141.3,344.6,141.3c115.2,0,219-35.1,292.2-91.2c29,4.2,58.6,2.9,87.1-3.8
						c79.2-18.6,138.6-74.1,158.1-138.9C907.1,1721.3,973.4,1634.9,973.4,1536.7z"/>
					<path id="Shape_67_" class="st7" d="M-183.4,1326.8c0,0,82.4-114.6,348.1-116.5c265.7-1.9,378.2,135.5,378.2,135.5
						S212.5,1097.8-183.4,1326.8z"/>
					<path id="Shape_66_" class="st8" d="M806.2,1772.1c99.9-50.5,167.2-137.3,167.2-235.2c0-155.7-166.6-281.9-371.9-281.9
						c-46.8-0.1-93.4,6.8-138.2,20.3c1.4,0,285.2-53.6,406.8,108.7s49.1,263.6-57.4,353.8C811.8,1749.4,809.6,1760.9,806.2,1772.1z"
						/>
					<path id="Shape_65_" class="st8" d="M590.2,1408.2c-1.2,33.6-182.3,121.6-403.8,113.7C-35,1514-167.3,1395.6-159,1363.4
						c22.3-88.1,157.2,56.8,378.6,64.7C441,1435.9,591.4,1374.5,590.2,1408.2z"/>
					<path id="Shape_64_" class="st26" d="M543.2,1207.9c0,0,78.3-173.5,231.1-50.9s-48.4,228.2-26.1,284.7
						c22.3,56.6,83.9,35.8,83.9,35.8s-61.3,105.6-141.6,64.1c-80.3-41.5-67.1-133.8-40.9-218.6c26.2-84.8-26.1-109.4-81.8-81.1
						L543.2,1207.9z"/>
					<path id="Shape_63_" class="st27" d="M748.2,1441.7c-22.3-56.6,179-162.1,26.1-284.7s-231.1,50.9-231.1,50.9l16.1,22.6
						c0,0,64-56.6,112.5-33.9c48.4,22.7,44.8,82.7,11.2,162.1s3.7,241.2,149.1,118.7C832.1,1477.5,770.5,1498.2,748.2,1441.7z"/>
					<path id="Shape_62_" class="st28" d="M748.2,1441.7c-22.3-56.6,179-162.1,26.1-284.7s-231.1,50.9-231.1,50.9l6.8,9.8
						c0,0,74.9-77.7,134.7-64.5c59.7,13.2,88.1,67.9,44.8,184.7c-43.3,116.8-18.6,192.3,102.5,139.5
						C832.1,1477.5,770.5,1498.2,748.2,1441.7z"/>
					<path id="Shape_61_" class="st4" d="M201.2,537.6c-77.8-40.5-161-69.1-247.1-84.8C-180.6,430.1-290,571-240.6,711.8
						S-59.4,911.7,39.5,930c0,0-85.4,27.2-71.9,131.8c13.5,104.5-62.9,245.5-103.3,268.2c-40.4,22.7,71.9,136.3,148.2,77.2
						c45.2-34.9,73.1-88,76.4-145.5l89.9,40.9c0,0-13.6,43.1-58.4,31.8s-35.9,95.4-9,136.3c26.9,40.9,148.3,36.4,206.7,9.1
						c58.4-27.3,256.1,31.8,274.1-227.4s-166.2-181.8-183.9-322.7s31.4-204.5-31.5-254.5c0,0,13.6-46.9-58.4-72.7
						C318.1,602.8,264,574,201.2,537.6z"/>
					<path id="Shape_60_" class="st29" d="M-2.7,1001.3C25.7,926.8,124,917.9,124,917.9c-176.8,17.9-296.3-95.4-296.3-95.4
						C-111.1,886-28,917.5,39.5,930c0,0-85.4,27.2-71.9,131.8c5.3,41.3-3.5,89-18.7,132.4C-14.9,1115.9-31.1,1075.5-2.7,1001.3z"/>
					<path id="Shape_59_" class="st29" d="M389.8,1468.9c80.5-7.4,189.2-27.1,202.3-216c18-259.1-166.2-181.8-183.9-322.7
						c-16.4-128.4,22.9-192.5-17.4-240.7c2.7,5.8,21.7,50.9-0.3,121.3c-23.6,75.8-42.6,163.7,68.1,229.1
						C569.2,1105.1,646.8,1399.5,389.8,1468.9z"/>
					<path id="Shape_58_" class="st30" d="M404.9,1048.9c0,0,38.7-246.8,237.9-280.7s315.7,31.2,401.3-4.2c0,0-71,92.6-309.3,90.1
						c0,0,119.4,65.3,203.4,47c0,0-100.3,74.4-302.5,44.8c0,0,74.3,61.3,151.6,53.8c0,0-88.1,32.4-205.9,13.2
						c0,0,34.1,31.8,76.2,38.5c0,0-72.8,19.4-136.3-0.8C521.1,1050.7,472.6,1020.4,404.9,1048.9z"/>
					<g id="Group_1_" transform="translate(97.797521, 56.526316)" class="st14">
						<path id="Shape_57_" class="st30" d="M544.8,711.7c-199.2,33.9-237.7,280.7-237.7,280.7c12.4-5.2,60.8-9.7,71.7-11.5
							c0,0-9.1-184.5,124.6-241.2s349.6,32.8,442.8-32C860.5,742.9,743.9,677.8,544.8,711.7z"/>
						<path id="Shape_56_" class="st31" d="M636.8,797.6c110,1.2,184.3-18,232.4-38.9c0,0-140.9,38.5-270.8,28.9
							c0,0,120.6,89.6,241.8,56.9C756.1,862.9,636.8,797.6,636.8,797.6z"/>
						<path id="Shape_55_" class="st31" d="M723.5,888c-1,0-147.6,2.1-205.2-12.5c0,0,36.4,72.6,160,68.2
							c-73.3,1.2-140.6-54.4-140.6-54.4C599.3,899.2,662.1,898.8,723.5,888z"/>
						<path id="Shape_54_" class="st31" d="M604.2,960.3c0,0-106.3-5.2-148.2-17c0,0,10.8,36.7,103.8,51.6
							c-42-6.9-76.2-38.5-76.2-38.5C523.4,962.9,564,964.2,604.2,960.3z"/>
					</g>
					<path id="Shape_53_" class="st16" d="M-103.6,523.5c0,8.8-7,15.9-15.6,15.9c-8.7,0-15.7-7-15.8-15.7s6.8-15.9,15.5-16.1
						c4.2-0.1,8.3,1.5,11.3,4.5C-105.3,515.1-103.6,519.2-103.6,523.5z"/>
					<path id="Shape_52_" class="st32" d="M241.4,186.4c0,0,12.9,32.2,4.4,91.4c-8.5,59.2-1.3,92.5-1.2,106.3s-12.5,26.5-12.1,42.5
						c0.5,16.1,2.7,29.5-5.9,43.8c-8.6,14.3-4.7,46.4-10.5,59.3c-5.8,12.9-63.6,16.9-104.4-27c0,0,1.9-25.7,10.5-39.9
						s18.6-44.9,23.7-56.2c5.1-11.2,6.8-42.8,15.7-57.1s14.5-52.2,24.3-71.3c9.8-19.2,19.3-46.1,26.4-63.5S236.4,166.5,241.4,186.4z
						"/>
					<path id="Shape_51_" class="st30" d="M215.9,529.7c5-11.3,2.7-37.1,7.7-53.1c-4.6,1.2-9.1,3.1-13.1,5.7c0,0-39.3,12-88.6-19.5
						c-8.6,14.2-10.5,39.9-10.5,39.9C152.4,546.5,210.1,542.5,215.9,529.7z"/>
					<path id="Shape_50_" class="st30" d="M172.3,413.3c26.6,6.9,64-4.4,64-4.4c4.3-7.6,7-16,8-24.7c0-7.9-2.5-22.2-2.9-43.9
						c-24.7,4.8-50.2,3.1-74.1-5c-1.5,5-3.5,9.7-6,14.3c-8.2,13.8-10.4,42.9-15.1,55.1C154.7,408.2,163.4,411.1,172.3,413.3z"/>
					<path id="Shape_49_" class="st30" d="M245.5,278.3c0-0.2,0-0.3,0-0.5c3.6-23.1,3.9-46.6,0.7-69.8c-10.1,0.2-20.1-0.7-30-2.5
						c-1.6,3.2-3,6.4-4.2,9.2c-6.8,16.3-15.5,40.9-24.6,59.7c4,1.2,8.4,2.5,13.6,3.9C215.8,281.2,230.9,281.2,245.5,278.3z"/>
					<path id="Shape_48_" class="st33" d="M149.5,522.9c-3.1-8.1,10.8-42.8,12.9-61.2s1-40.4,8.7-61.1s9-36,21.1-59.4
						c12.1-23.4,9.3-63,21.5-102.5c12.2-39.5,30.5-42,30.5-42c-0.8-3.6-1.8-7.1-3-10.5c-4.8-19.9-21.9,10.9-29,28.3
						c-7.2,17.4-16.6,44.5-26.4,63.5c-9.8,19-15.7,57.1-24.3,71.3s-10.6,45.7-15.7,57.1c-5.1,11.4-15.1,41.9-23.7,56.2
						c-8.6,14.3-10.5,39.9-10.5,39.9c10.3,11.1,22.6,19.9,36.3,26.1C149.5,527.3,150.1,525,149.5,522.9z"/>
					<path id="Shape_47_" class="st27" d="M491,902.3c0,0,15,137.5-86,177.9s-116.3,113.1-71.5,118.1s51.6-51.9,51.6-51.9
						s34.1,63.3-32.8,96.5c-66.8,33.1-127.2-63-82.7-134c44.5-71,88.9-90,107.2-124C395,950.7,431,955.2,491,902.3z"/>
					<path id="Shape_46_" class="st26" d="M387.9,1039.3c65.4-34.5,79.3-107.7,79.3-107.7c1.5-3.9,2.5-8.1,2.9-12.3
						c-47.7,35.6-77.3,36.5-93.3,66.1c-18.3,33.7-62.6,52.7-107.2,124c-16.2,25.9-19.7,57.9-9.5,86.8
						C261.9,1107.4,322.5,1074,387.9,1039.3z"/>
					<path id="Shape_45_" class="st28" d="M364,1189.4c-8.5,7.2-19.6,10.5-30.6,8.9c-44.8-4.9-29.6-77.8,71.5-118.1
						c0,0-84.1,26.3-106.3,62C276.4,1177.9,309.5,1239.7,364,1189.4z"/>
					<path id="Shape_44_" class="st26" d="M288.3,1236.8c18.2,14.9,43.4,17.4,64,6.3c66.8-33.4,32.8-96.5,32.8-96.5
						S390.5,1259.5,288.3,1236.8z"/>
					<path id="Shape_43_" class="st27" d="M413.2,649.5c0,0,148.9,110.3,89,233.3s-229.9,116.6-215.6,194.1l-17,32.2
						c0,0-66.6-88.8,8.8-138.4s209.3-131.8,100.3-283.4C378.7,687.3,381.8,637.9,413.2,649.5z"/>
					<path id="Shape_42_" class="st28" d="M378.7,687.3c104.7,145.7-14.9,227.4-91.2,277.4c60.3-37.9,132.2-50.2,174.3-137.8
						c44.3-92.1-48.5-177.4-48.5-177.4C381.8,637.9,378.7,687.3,378.7,687.3z"/>
					<path id="Shape_41_" class="st26" d="M388.2,656.8c-5.5,9.3-8.7,19.7-9.5,30.5c79.5,110.3,29.7,184.3-32.3,235.3
						C525.5,809.6,388.2,656.9,388.2,656.8z"/>
					<path id="Shape_40_" class="st28" d="M502.2,882.7c15.1-30.3,18.3-65.3,9.1-97.9c0,0.8-2.6,132.6-102.7,163
						s-117.3,13.4-164.3,68.9c0,0,58.7-36.2,107.6-13.1C402.6,978.9,469.1,950.5,502.2,882.7z"/>
					<path id="Shape_39_" class="st28" d="M312.9,1025.7c-25.8-0.1-50.5,11-67.7,30.5c4.8,19,13.1,37,24.4,52.9l17-32.2
						C282.5,1054.6,293.4,1039.2,312.9,1025.7z"/>
					<path id="Shape_38_" class="st27" d="M255.4,617.9c0,0-34.4-104.5-153.4-71.7c-119,32.8-258.9-71.9-186.3-204.6
						c0,0-16.5,146.9,98.6,122.7c115.1-24.3,278.8-119.5,328.5,144.4C342.9,608.7,292.6,699.6,255.4,617.9z"/>
					<path id="Shape_31_" class="st28" d="M102,546.3c119-32.8,153.4,71.7,153.4,71.7c23.5,51.8,52.3,34.5,70.2,14.5
						c0,0-13.6-62-84.2-123.6c0,0,35.6,55.1,34.9,89.6c0,0-55.9-101.3-141.6-93c-85.8,8.3-261.9,40.1-219-163.7
						C-156.6,474.3-17.1,579.1,102,546.3z"/>
					<path id="Shape_32_" class="st28" d="M334.8,573.1C292,410.4,196.5,416.6,105.1,440.2C277.8,427.8,324.8,540,334.8,573.1z"/>
					<path id="Shape_33_" class="st28" d="M332.4,614.4c0,0,46.5-78.3-19.8-167.6c-66.3-89.2-162.5-118.5-275.2-1.7
						C37.4,445,227.8,369.6,332.4,614.4z"/>
					<path id="Shape_34_" class="st26" d="M332.4,614.4c0,0,46.5-78.3-19.8-167.6c-26.8-36.1-58.5-62.4-94.1-73.1
						c0,0,64.3,40.6,87,110.9c0,0-86.7-157.5-268.1-39.5C37.4,445,227.8,369.6,332.4,614.4z"/>
					<path id="Shape_35_" class="st17" d="M103.7,648.2c0,0,25.5-41,48.8-16.5c12.4,13,0,39.7,0,39.7"/>
					<path id="Shape_36_" class="st4" d="M289.1,638c0,0,56.5-140.3,205.6-81.7c0,0-58,137.1-132.5,139.3
						C287.7,697.8,268.7,660.1,289.1,638z"/>
					<path id="Shape_37_" class="st34" d="M335.4,623.8c0,0,57.2-45.1,101.7-28.9C437.1,594.9,390.7,670.7,335.4,623.8z"/>
					
						<ellipse id="Oval_7_" transform="matrix(-1 2.341066e-06 -2.341066e-06 -1 266.0549 1313.7114)" class="st35" cx="133" cy="656.9" rx="46.5" ry="47.1"/>
					
						<ellipse id="Oval_6_" transform="matrix(-1 2.341067e-06 -2.341067e-06 -1 266.0549 1313.7114)" class="st4" cx="133" cy="656.9" rx="39.9" ry="40.3"/>
					
						<ellipse id="Oval_2_" transform="matrix(-1 2.341065e-06 -2.341065e-06 -1 266.0549 1316.6056)" class="st35" cx="133" cy="658.3" rx="33.9" ry="34.3"/>
					
						<ellipse id="Oval_3_" transform="matrix(-0.866 -0.5 0.5 -0.866 -57.9748 1281.5017)" class="st35" cx="142.7" cy="648.5" rx="10.2" ry="10.2"/>
					
						<ellipse id="Oval_4_" transform="matrix(-1 2.341066e-06 -2.341066e-06 -1 297.12 1270.7128)" class="st4" cx="148.6" cy="635.4" rx="12.1" ry="12.3"/>
					
						<ellipse id="Oval_5_" transform="matrix(-0.866 -0.5 0.5 -0.866 -102.5999 1310.7516)" class="st4" cx="124.3" cy="669.1" rx="10.2" ry="10.2"/>
				</g>
			</g>
		</g>
	</g>
</g>
</svg>
